<?xml version="1.0" encoding="utf-8" standalone="no"?>
<!DOCTYPE svg PUBLIC "-//W3C//DTD SVG 1.1//EN"
  "http://www.w3.org/Graphics/SVG/1.1/DTD/svg11.dtd">
<svg xmlns:xlink="http://www.w3.org/1999/xlink" width="856.46125pt" height="495.034375pt" viewBox="0 0 856.46125 495.034375" xmlns="http://www.w3.org/2000/svg" version="1.1">
 <metadata>
  <rdf:RDF xmlns:dc="http://purl.org/dc/elements/1.1/" xmlns:cc="http://creativecommons.org/ns#" xmlns:rdf="http://www.w3.org/1999/02/22-rdf-syntax-ns#">
   <cc:Work>
    <dc:type rdf:resource="http://purl.org/dc/dcmitype/StillImage"/>
    <dc:date>2026-08-16T02:15:37.345358</dc:date>
    <dc:format>image/svg+xml</dc:format>
    <dc:creator>
     <cc:Agent>
      <dc:title>Matplotlib v3.10.8, https://matplotlib.org/</dc:title>
     </cc:Agent>
    </dc:creator>
   </cc:Work>
  </rdf:RDF>
 </metadata>
 <defs>
  <style type="text/css">*{stroke-linejoin: round; stroke-linecap: butt}</style>
 </defs>
 <g id="figure_1">
  <g id="patch_1">
   <path d="M 0 495.034375 
L 856.46125 495.034375 
L 856.46125 0 
L 0 0 
z
" style="fill: #ffffff"/>
  </g>
  <g id="axes_1">
   <g id="patch_2">
    <path d="M 43.78125 457.478125 
L 849.26125 457.478125 
L 849.26125 22.318125 
L 43.78125 22.318125 
z
" style="fill: #ffffff"/>
   </g>
   <g id="matplotlib.axis_1">
    <g id="xtick_1">
     <g id="line2d_1">
      <path d="M 80.393977 457.478125 
L 80.393977 22.318125 
" clip-path="url(#p89dda28c19)" style="fill: none; stroke: #b0b0b0; stroke-opacity: 0.2; stroke-width: 0.8; stroke-linecap: square"/>
     </g>
     <g id="line2d_2">
      <defs>
       <path id="mcf88111526" d="M 0 0 
L 0 3.5 
" style="stroke: #000000; stroke-width: 0.8"/>
      </defs>
      <g>
       <use xlink:href="#mcf88111526" x="80.393977" y="457.478125" style="stroke: #000000; stroke-width: 0.8"/>
      </g>
     </g>
     <g id="text_1">
      <!-- 0 -->
      <g transform="translate(77.212727 472.076563) scale(0.1 -0.1)">
       <defs>
        <path id="DejaVuSans-30" d="M 2034 4250 
Q 1547 4250 1301 3770 
Q 1056 3291 1056 2328 
Q 1056 1369 1301 889 
Q 1547 409 2034 409 
Q 2525 409 2770 889 
Q 3016 1369 3016 2328 
Q 3016 3291 2770 3770 
Q 2525 4250 2034 4250 
z
M 2034 4750 
Q 2819 4750 3233 4129 
Q 3647 3509 3647 2328 
Q 3647 1150 3233 529 
Q 2819 -91 2034 -91 
Q 1250 -91 836 529 
Q 422 1150 422 2328 
Q 422 3509 836 4129 
Q 1250 4750 2034 4750 
z
" transform="scale(0.015625)"/>
       </defs>
       <use xlink:href="#DejaVuSans-30"/>
      </g>
     </g>
    </g>
    <g id="xtick_2">
     <g id="line2d_3">
      <path d="M 226.991484 457.478125 
L 226.991484 22.318125 
" clip-path="url(#p89dda28c19)" style="fill: none; stroke: #b0b0b0; stroke-opacity: 0.2; stroke-width: 0.8; stroke-linecap: square"/>
     </g>
     <g id="line2d_4">
      <g>
       <use xlink:href="#mcf88111526" x="226.991484" y="457.478125" style="stroke: #000000; stroke-width: 0.8"/>
      </g>
     </g>
     <g id="text_2">
      <!-- 200 -->
      <g transform="translate(217.447734 472.076563) scale(0.1 -0.1)">
       <defs>
        <path id="DejaVuSans-32" d="M 1228 531 
L 3431 531 
L 3431 0 
L 469 0 
L 469 531 
Q 828 903 1448 1529 
Q 2069 2156 2228 2338 
Q 2531 2678 2651 2914 
Q 2772 3150 2772 3378 
Q 2772 3750 2511 3984 
Q 2250 4219 1831 4219 
Q 1534 4219 1204 4116 
Q 875 4013 500 3803 
L 500 4441 
Q 881 4594 1212 4672 
Q 1544 4750 1819 4750 
Q 2544 4750 2975 4387 
Q 3406 4025 3406 3419 
Q 3406 3131 3298 2873 
Q 3191 2616 2906 2266 
Q 2828 2175 2409 1742 
Q 1991 1309 1228 531 
z
" transform="scale(0.015625)"/>
       </defs>
       <use xlink:href="#DejaVuSans-32"/>
       <use xlink:href="#DejaVuSans-30" transform="translate(63.623047 0)"/>
       <use xlink:href="#DejaVuSans-30" transform="translate(127.246094 0)"/>
      </g>
     </g>
    </g>
    <g id="xtick_3">
     <g id="line2d_5">
      <path d="M 373.58899 457.478125 
L 373.58899 22.318125 
" clip-path="url(#p89dda28c19)" style="fill: none; stroke: #b0b0b0; stroke-opacity: 0.2; stroke-width: 0.8; stroke-linecap: square"/>
     </g>
     <g id="line2d_6">
      <g>
       <use xlink:href="#mcf88111526" x="373.58899" y="457.478125" style="stroke: #000000; stroke-width: 0.8"/>
      </g>
     </g>
     <g id="text_3">
      <!-- 400 -->
      <g transform="translate(364.04524 472.076563) scale(0.1 -0.1)">
       <defs>
        <path id="DejaVuSans-34" d="M 2419 4116 
L 825 1625 
L 2419 1625 
L 2419 4116 
z
M 2253 4666 
L 3047 4666 
L 3047 1625 
L 3713 1625 
L 3713 1100 
L 3047 1100 
L 3047 0 
L 2419 0 
L 2419 1100 
L 313 1100 
L 313 1709 
L 2253 4666 
z
" transform="scale(0.015625)"/>
       </defs>
       <use xlink:href="#DejaVuSans-34"/>
       <use xlink:href="#DejaVuSans-30" transform="translate(63.623047 0)"/>
       <use xlink:href="#DejaVuSans-30" transform="translate(127.246094 0)"/>
      </g>
     </g>
    </g>
    <g id="xtick_4">
     <g id="line2d_7">
      <path d="M 520.186497 457.478125 
L 520.186497 22.318125 
" clip-path="url(#p89dda28c19)" style="fill: none; stroke: #b0b0b0; stroke-opacity: 0.2; stroke-width: 0.8; stroke-linecap: square"/>
     </g>
     <g id="line2d_8">
      <g>
       <use xlink:href="#mcf88111526" x="520.186497" y="457.478125" style="stroke: #000000; stroke-width: 0.8"/>
      </g>
     </g>
     <g id="text_4">
      <!-- 600 -->
      <g transform="translate(510.642747 472.076563) scale(0.1 -0.1)">
       <defs>
        <path id="DejaVuSans-36" d="M 2113 2584 
Q 1688 2584 1439 2293 
Q 1191 2003 1191 1497 
Q 1191 994 1439 701 
Q 1688 409 2113 409 
Q 2538 409 2786 701 
Q 3034 994 3034 1497 
Q 3034 2003 2786 2293 
Q 2538 2584 2113 2584 
z
M 3366 4563 
L 3366 3988 
Q 3128 4100 2886 4159 
Q 2644 4219 2406 4219 
Q 1781 4219 1451 3797 
Q 1122 3375 1075 2522 
Q 1259 2794 1537 2939 
Q 1816 3084 2150 3084 
Q 2853 3084 3261 2657 
Q 3669 2231 3669 1497 
Q 3669 778 3244 343 
Q 2819 -91 2113 -91 
Q 1303 -91 875 529 
Q 447 1150 447 2328 
Q 447 3434 972 4092 
Q 1497 4750 2381 4750 
Q 2619 4750 2861 4703 
Q 3103 4656 3366 4563 
z
" transform="scale(0.015625)"/>
       </defs>
       <use xlink:href="#DejaVuSans-36"/>
       <use xlink:href="#DejaVuSans-30" transform="translate(63.623047 0)"/>
       <use xlink:href="#DejaVuSans-30" transform="translate(127.246094 0)"/>
      </g>
     </g>
    </g>
    <g id="xtick_5">
     <g id="line2d_9">
      <path d="M 666.784004 457.478125 
L 666.784004 22.318125 
" clip-path="url(#p89dda28c19)" style="fill: none; stroke: #b0b0b0; stroke-opacity: 0.2; stroke-width: 0.8; stroke-linecap: square"/>
     </g>
     <g id="line2d_10">
      <g>
       <use xlink:href="#mcf88111526" x="666.784004" y="457.478125" style="stroke: #000000; stroke-width: 0.8"/>
      </g>
     </g>
     <g id="text_5">
      <!-- 800 -->
      <g transform="translate(657.240254 472.076563) scale(0.1 -0.1)">
       <defs>
        <path id="DejaVuSans-38" d="M 2034 2216 
Q 1584 2216 1326 1975 
Q 1069 1734 1069 1313 
Q 1069 891 1326 650 
Q 1584 409 2034 409 
Q 2484 409 2743 651 
Q 3003 894 3003 1313 
Q 3003 1734 2745 1975 
Q 2488 2216 2034 2216 
z
M 1403 2484 
Q 997 2584 770 2862 
Q 544 3141 544 3541 
Q 544 4100 942 4425 
Q 1341 4750 2034 4750 
Q 2731 4750 3128 4425 
Q 3525 4100 3525 3541 
Q 3525 3141 3298 2862 
Q 3072 2584 2669 2484 
Q 3125 2378 3379 2068 
Q 3634 1759 3634 1313 
Q 3634 634 3220 271 
Q 2806 -91 2034 -91 
Q 1263 -91 848 271 
Q 434 634 434 1313 
Q 434 1759 690 2068 
Q 947 2378 1403 2484 
z
M 1172 3481 
Q 1172 3119 1398 2916 
Q 1625 2713 2034 2713 
Q 2441 2713 2670 2916 
Q 2900 3119 2900 3481 
Q 2900 3844 2670 4047 
Q 2441 4250 2034 4250 
Q 1625 4250 1398 4047 
Q 1172 3844 1172 3481 
z
" transform="scale(0.015625)"/>
       </defs>
       <use xlink:href="#DejaVuSans-38"/>
       <use xlink:href="#DejaVuSans-30" transform="translate(63.623047 0)"/>
       <use xlink:href="#DejaVuSans-30" transform="translate(127.246094 0)"/>
      </g>
     </g>
    </g>
    <g id="xtick_6">
     <g id="line2d_11">
      <path d="M 813.38151 457.478125 
L 813.38151 22.318125 
" clip-path="url(#p89dda28c19)" style="fill: none; stroke: #b0b0b0; stroke-opacity: 0.2; stroke-width: 0.8; stroke-linecap: square"/>
     </g>
     <g id="line2d_12">
      <g>
       <use xlink:href="#mcf88111526" x="813.38151" y="457.478125" style="stroke: #000000; stroke-width: 0.8"/>
      </g>
     </g>
     <g id="text_6">
      <!-- 1000 -->
      <g transform="translate(800.65651 472.076563) scale(0.1 -0.1)">
       <defs>
        <path id="DejaVuSans-31" d="M 794 531 
L 1825 531 
L 1825 4091 
L 703 3866 
L 703 4441 
L 1819 4666 
L 2450 4666 
L 2450 531 
L 3481 531 
L 3481 0 
L 794 0 
L 794 531 
z
" transform="scale(0.015625)"/>
       </defs>
       <use xlink:href="#DejaVuSans-31"/>
       <use xlink:href="#DejaVuSans-30" transform="translate(63.623047 0)"/>
       <use xlink:href="#DejaVuSans-30" transform="translate(127.246094 0)"/>
       <use xlink:href="#DejaVuSans-30" transform="translate(190.869141 0)"/>
      </g>
     </g>
    </g>
    <g id="text_7">
     <!-- Step -->
     <g transform="translate(435.136094 485.754688) scale(0.1 -0.1)">
      <defs>
       <path id="DejaVuSans-53" d="M 3425 4513 
L 3425 3897 
Q 3066 4069 2747 4153 
Q 2428 4238 2131 4238 
Q 1616 4238 1336 4038 
Q 1056 3838 1056 3469 
Q 1056 3159 1242 3001 
Q 1428 2844 1947 2747 
L 2328 2669 
Q 3034 2534 3370 2195 
Q 3706 1856 3706 1288 
Q 3706 609 3251 259 
Q 2797 -91 1919 -91 
Q 1588 -91 1214 -16 
Q 841 59 441 206 
L 441 856 
Q 825 641 1194 531 
Q 1563 422 1919 422 
Q 2459 422 2753 634 
Q 3047 847 3047 1241 
Q 3047 1584 2836 1778 
Q 2625 1972 2144 2069 
L 1759 2144 
Q 1053 2284 737 2584 
Q 422 2884 422 3419 
Q 422 4038 858 4394 
Q 1294 4750 2059 4750 
Q 2388 4750 2728 4690 
Q 3069 4631 3425 4513 
z
" transform="scale(0.015625)"/>
       <path id="DejaVuSans-74" d="M 1172 4494 
L 1172 3500 
L 2356 3500 
L 2356 3053 
L 1172 3053 
L 1172 1153 
Q 1172 725 1289 603 
Q 1406 481 1766 481 
L 2356 481 
L 2356 0 
L 1766 0 
Q 1100 0 847 248 
Q 594 497 594 1153 
L 594 3053 
L 172 3053 
L 172 3500 
L 594 3500 
L 594 4494 
L 1172 4494 
z
" transform="scale(0.015625)"/>
       <path id="DejaVuSans-65" d="M 3597 1894 
L 3597 1613 
L 953 1613 
Q 991 1019 1311 708 
Q 1631 397 2203 397 
Q 2534 397 2845 478 
Q 3156 559 3463 722 
L 3463 178 
Q 3153 47 2828 -22 
Q 2503 -91 2169 -91 
Q 1331 -91 842 396 
Q 353 884 353 1716 
Q 353 2575 817 3079 
Q 1281 3584 2069 3584 
Q 2775 3584 3186 3129 
Q 3597 2675 3597 1894 
z
M 3022 2063 
Q 3016 2534 2758 2815 
Q 2500 3097 2075 3097 
Q 1594 3097 1305 2825 
Q 1016 2553 972 2059 
L 3022 2063 
z
" transform="scale(0.015625)"/>
       <path id="DejaVuSans-70" d="M 1159 525 
L 1159 -1331 
L 581 -1331 
L 581 3500 
L 1159 3500 
L 1159 2969 
Q 1341 3281 1617 3432 
Q 1894 3584 2278 3584 
Q 2916 3584 3314 3078 
Q 3713 2572 3713 1747 
Q 3713 922 3314 415 
Q 2916 -91 2278 -91 
Q 1894 -91 1617 61 
Q 1341 213 1159 525 
z
M 3116 1747 
Q 3116 2381 2855 2742 
Q 2594 3103 2138 3103 
Q 1681 3103 1420 2742 
Q 1159 2381 1159 1747 
Q 1159 1113 1420 752 
Q 1681 391 2138 391 
Q 2594 391 2855 752 
Q 3116 1113 3116 1747 
z
" transform="scale(0.015625)"/>
      </defs>
      <use xlink:href="#DejaVuSans-53"/>
      <use xlink:href="#DejaVuSans-74" transform="translate(63.476562 0)"/>
      <use xlink:href="#DejaVuSans-65" transform="translate(102.685547 0)"/>
      <use xlink:href="#DejaVuSans-70" transform="translate(164.208984 0)"/>
     </g>
    </g>
   </g>
   <g id="matplotlib.axis_2">
    <g id="ytick_1">
     <g id="line2d_13">
      <path d="M 43.78125 437.698125 
L 849.26125 437.698125 
" clip-path="url(#p89dda28c19)" style="fill: none; stroke: #b0b0b0; stroke-opacity: 0.2; stroke-width: 0.8; stroke-linecap: square"/>
     </g>
     <g id="line2d_14">
      <defs>
       <path id="m4ae4fc8401" d="M 0 0 
L -3.5 0 
" style="stroke: #000000; stroke-width: 0.8"/>
      </defs>
      <g>
       <use xlink:href="#m4ae4fc8401" x="43.78125" y="437.698125" style="stroke: #000000; stroke-width: 0.8"/>
      </g>
     </g>
     <g id="text_8">
      <!-- 0.0 -->
      <g transform="translate(20.878125 441.497344) scale(0.1 -0.1)">
       <defs>
        <path id="DejaVuSans-2e" d="M 684 794 
L 1344 794 
L 1344 0 
L 684 0 
L 684 794 
z
" transform="scale(0.015625)"/>
       </defs>
       <use xlink:href="#DejaVuSans-30"/>
       <use xlink:href="#DejaVuSans-2e" transform="translate(63.623047 0)"/>
       <use xlink:href="#DejaVuSans-30" transform="translate(95.410156 0)"/>
      </g>
     </g>
    </g>
    <g id="ytick_2">
     <g id="line2d_15">
      <path d="M 43.78125 358.578125 
L 849.26125 358.578125 
" clip-path="url(#p89dda28c19)" style="fill: none; stroke: #b0b0b0; stroke-opacity: 0.2; stroke-width: 0.8; stroke-linecap: square"/>
     </g>
     <g id="line2d_16">
      <g>
       <use xlink:href="#m4ae4fc8401" x="43.78125" y="358.578125" style="stroke: #000000; stroke-width: 0.8"/>
      </g>
     </g>
     <g id="text_9">
      <!-- 0.2 -->
      <g transform="translate(20.878125 362.377344) scale(0.1 -0.1)">
       <use xlink:href="#DejaVuSans-30"/>
       <use xlink:href="#DejaVuSans-2e" transform="translate(63.623047 0)"/>
       <use xlink:href="#DejaVuSans-32" transform="translate(95.410156 0)"/>
      </g>
     </g>
    </g>
    <g id="ytick_3">
     <g id="line2d_17">
      <path d="M 43.78125 279.458125 
L 849.26125 279.458125 
" clip-path="url(#p89dda28c19)" style="fill: none; stroke: #b0b0b0; stroke-opacity: 0.2; stroke-width: 0.8; stroke-linecap: square"/>
     </g>
     <g id="line2d_18">
      <g>
       <use xlink:href="#m4ae4fc8401" x="43.78125" y="279.458125" style="stroke: #000000; stroke-width: 0.8"/>
      </g>
     </g>
     <g id="text_10">
      <!-- 0.4 -->
      <g transform="translate(20.878125 283.257344) scale(0.1 -0.1)">
       <use xlink:href="#DejaVuSans-30"/>
       <use xlink:href="#DejaVuSans-2e" transform="translate(63.623047 0)"/>
       <use xlink:href="#DejaVuSans-34" transform="translate(95.410156 0)"/>
      </g>
     </g>
    </g>
    <g id="ytick_4">
     <g id="line2d_19">
      <path d="M 43.78125 200.338125 
L 849.26125 200.338125 
" clip-path="url(#p89dda28c19)" style="fill: none; stroke: #b0b0b0; stroke-opacity: 0.2; stroke-width: 0.8; stroke-linecap: square"/>
     </g>
     <g id="line2d_20">
      <g>
       <use xlink:href="#m4ae4fc8401" x="43.78125" y="200.338125" style="stroke: #000000; stroke-width: 0.8"/>
      </g>
     </g>
     <g id="text_11">
      <!-- 0.6 -->
      <g transform="translate(20.878125 204.137344) scale(0.1 -0.1)">
       <use xlink:href="#DejaVuSans-30"/>
       <use xlink:href="#DejaVuSans-2e" transform="translate(63.623047 0)"/>
       <use xlink:href="#DejaVuSans-36" transform="translate(95.410156 0)"/>
      </g>
     </g>
    </g>
    <g id="ytick_5">
     <g id="line2d_21">
      <path d="M 43.78125 121.218125 
L 849.26125 121.218125 
" clip-path="url(#p89dda28c19)" style="fill: none; stroke: #b0b0b0; stroke-opacity: 0.2; stroke-width: 0.8; stroke-linecap: square"/>
     </g>
     <g id="line2d_22">
      <g>
       <use xlink:href="#m4ae4fc8401" x="43.78125" y="121.218125" style="stroke: #000000; stroke-width: 0.8"/>
      </g>
     </g>
     <g id="text_12">
      <!-- 0.8 -->
      <g transform="translate(20.878125 125.017344) scale(0.1 -0.1)">
       <use xlink:href="#DejaVuSans-30"/>
       <use xlink:href="#DejaVuSans-2e" transform="translate(63.623047 0)"/>
       <use xlink:href="#DejaVuSans-38" transform="translate(95.410156 0)"/>
      </g>
     </g>
    </g>
    <g id="ytick_6">
     <g id="line2d_23">
      <path d="M 43.78125 42.098125 
L 849.26125 42.098125 
" clip-path="url(#p89dda28c19)" style="fill: none; stroke: #b0b0b0; stroke-opacity: 0.2; stroke-width: 0.8; stroke-linecap: square"/>
     </g>
     <g id="line2d_24">
      <g>
       <use xlink:href="#m4ae4fc8401" x="43.78125" y="42.098125" style="stroke: #000000; stroke-width: 0.8"/>
      </g>
     </g>
     <g id="text_13">
      <!-- 1.0 -->
      <g transform="translate(20.878125 45.897344) scale(0.1 -0.1)">
       <use xlink:href="#DejaVuSans-31"/>
       <use xlink:href="#DejaVuSans-2e" transform="translate(63.623047 0)"/>
       <use xlink:href="#DejaVuSans-30" transform="translate(95.410156 0)"/>
      </g>
     </g>
    </g>
    <g id="text_14">
     <!-- train/success -->
     <g transform="translate(14.798438 272.777813) rotate(-90) scale(0.1 -0.1)">
      <defs>
       <path id="DejaVuSans-72" d="M 2631 2963 
Q 2534 3019 2420 3045 
Q 2306 3072 2169 3072 
Q 1681 3072 1420 2755 
Q 1159 2438 1159 1844 
L 1159 0 
L 581 0 
L 581 3500 
L 1159 3500 
L 1159 2956 
Q 1341 3275 1631 3429 
Q 1922 3584 2338 3584 
Q 2397 3584 2469 3576 
Q 2541 3569 2628 3553 
L 2631 2963 
z
" transform="scale(0.015625)"/>
       <path id="DejaVuSans-61" d="M 2194 1759 
Q 1497 1759 1228 1600 
Q 959 1441 959 1056 
Q 959 750 1161 570 
Q 1363 391 1709 391 
Q 2188 391 2477 730 
Q 2766 1069 2766 1631 
L 2766 1759 
L 2194 1759 
z
M 3341 1997 
L 3341 0 
L 2766 0 
L 2766 531 
Q 2569 213 2275 61 
Q 1981 -91 1556 -91 
Q 1019 -91 701 211 
Q 384 513 384 1019 
Q 384 1609 779 1909 
Q 1175 2209 1959 2209 
L 2766 2209 
L 2766 2266 
Q 2766 2663 2505 2880 
Q 2244 3097 1772 3097 
Q 1472 3097 1187 3025 
Q 903 2953 641 2809 
L 641 3341 
Q 956 3463 1253 3523 
Q 1550 3584 1831 3584 
Q 2591 3584 2966 3190 
Q 3341 2797 3341 1997 
z
" transform="scale(0.015625)"/>
       <path id="DejaVuSans-69" d="M 603 3500 
L 1178 3500 
L 1178 0 
L 603 0 
L 603 3500 
z
M 603 4863 
L 1178 4863 
L 1178 4134 
L 603 4134 
L 603 4863 
z
" transform="scale(0.015625)"/>
       <path id="DejaVuSans-6e" d="M 3513 2113 
L 3513 0 
L 2938 0 
L 2938 2094 
Q 2938 2591 2744 2837 
Q 2550 3084 2163 3084 
Q 1697 3084 1428 2787 
Q 1159 2491 1159 1978 
L 1159 0 
L 581 0 
L 581 3500 
L 1159 3500 
L 1159 2956 
Q 1366 3272 1645 3428 
Q 1925 3584 2291 3584 
Q 2894 3584 3203 3211 
Q 3513 2838 3513 2113 
z
" transform="scale(0.015625)"/>
       <path id="DejaVuSans-2f" d="M 1625 4666 
L 2156 4666 
L 531 -594 
L 0 -594 
L 1625 4666 
z
" transform="scale(0.015625)"/>
       <path id="DejaVuSans-73" d="M 2834 3397 
L 2834 2853 
Q 2591 2978 2328 3040 
Q 2066 3103 1784 3103 
Q 1356 3103 1142 2972 
Q 928 2841 928 2578 
Q 928 2378 1081 2264 
Q 1234 2150 1697 2047 
L 1894 2003 
Q 2506 1872 2764 1633 
Q 3022 1394 3022 966 
Q 3022 478 2636 193 
Q 2250 -91 1575 -91 
Q 1294 -91 989 -36 
Q 684 19 347 128 
L 347 722 
Q 666 556 975 473 
Q 1284 391 1588 391 
Q 1994 391 2212 530 
Q 2431 669 2431 922 
Q 2431 1156 2273 1281 
Q 2116 1406 1581 1522 
L 1381 1569 
Q 847 1681 609 1914 
Q 372 2147 372 2553 
Q 372 3047 722 3315 
Q 1072 3584 1716 3584 
Q 2034 3584 2315 3537 
Q 2597 3491 2834 3397 
z
" transform="scale(0.015625)"/>
       <path id="DejaVuSans-75" d="M 544 1381 
L 544 3500 
L 1119 3500 
L 1119 1403 
Q 1119 906 1312 657 
Q 1506 409 1894 409 
Q 2359 409 2629 706 
Q 2900 1003 2900 1516 
L 2900 3500 
L 3475 3500 
L 3475 0 
L 2900 0 
L 2900 538 
Q 2691 219 2414 64 
Q 2138 -91 1772 -91 
Q 1169 -91 856 284 
Q 544 659 544 1381 
z
M 1991 3584 
L 1991 3584 
z
" transform="scale(0.015625)"/>
       <path id="DejaVuSans-63" d="M 3122 3366 
L 3122 2828 
Q 2878 2963 2633 3030 
Q 2388 3097 2138 3097 
Q 1578 3097 1268 2742 
Q 959 2388 959 1747 
Q 959 1106 1268 751 
Q 1578 397 2138 397 
Q 2388 397 2633 464 
Q 2878 531 3122 666 
L 3122 134 
Q 2881 22 2623 -34 
Q 2366 -91 2075 -91 
Q 1284 -91 818 406 
Q 353 903 353 1747 
Q 353 2603 823 3093 
Q 1294 3584 2113 3584 
Q 2378 3584 2631 3529 
Q 2884 3475 3122 3366 
z
" transform="scale(0.015625)"/>
      </defs>
      <use xlink:href="#DejaVuSans-74"/>
      <use xlink:href="#DejaVuSans-72" transform="translate(39.208984 0)"/>
      <use xlink:href="#DejaVuSans-61" transform="translate(80.322266 0)"/>
      <use xlink:href="#DejaVuSans-69" transform="translate(141.601562 0)"/>
      <use xlink:href="#DejaVuSans-6e" transform="translate(169.384766 0)"/>
      <use xlink:href="#DejaVuSans-2f" transform="translate(232.763672 0)"/>
      <use xlink:href="#DejaVuSans-73" transform="translate(266.455078 0)"/>
      <use xlink:href="#DejaVuSans-75" transform="translate(318.554688 0)"/>
      <use xlink:href="#DejaVuSans-63" transform="translate(381.933594 0)"/>
      <use xlink:href="#DejaVuSans-63" transform="translate(436.914062 0)"/>
      <use xlink:href="#DejaVuSans-65" transform="translate(491.894531 0)"/>
      <use xlink:href="#DejaVuSans-73" transform="translate(553.417969 0)"/>
      <use xlink:href="#DejaVuSans-73" transform="translate(605.517578 0)"/>
     </g>
    </g>
   </g>
   <g id="line2d_25">
    <path d="M 80.393977 437.698125 
L 85.52489 437.698125 
L 86.257878 42.098125 
L 86.990865 42.098125 
L 87.723853 437.698125 
L 89.189828 437.698125 
L 89.922815 42.098125 
L 90.655803 437.698125 
L 92.854765 437.698125 
L 93.587753 42.098125 
L 94.32074 42.098125 
L 95.053728 437.698125 
L 95.786715 437.698125 
L 96.519703 42.098125 
L 97.252691 437.698125 
L 97.985678 437.698125 
L 98.718666 42.098125 
L 99.451653 437.698125 
L 100.184641 42.098125 
L 100.917628 437.698125 
L 101.650616 42.098125 
L 102.383603 437.698125 
L 103.116591 42.098125 
L 103.849578 437.698125 
L 104.582566 42.098125 
L 105.315553 437.698125 
L 106.048541 437.698125 
L 106.781528 42.098125 
L 107.514516 437.698125 
L 108.980491 437.698125 
L 109.713479 42.098125 
L 110.446466 42.098125 
L 111.179454 437.698125 
L 111.912441 437.698125 
L 112.645429 42.098125 
L 114.111404 42.098125 
L 114.844391 437.698125 
L 121.441279 437.698125 
L 122.174267 42.098125 
L 125.106217 42.098125 
L 125.839204 437.698125 
L 126.572192 437.698125 
L 127.305179 42.098125 
L 128.038167 437.698125 
L 128.771154 42.098125 
L 129.504142 437.698125 
L 138.299992 437.698125 
L 139.03298 42.098125 
L 139.765967 437.698125 
L 142.697918 437.698125 
L 143.430905 42.098125 
L 144.163893 437.698125 
L 144.89688 42.098125 
L 145.629868 437.698125 
L 146.362855 437.698125 
L 147.095843 42.098125 
L 147.82883 437.698125 
L 148.561818 437.698125 
L 149.294805 42.098125 
L 150.027793 437.698125 
L 151.493768 437.698125 
L 152.226756 42.098125 
L 152.959743 437.698125 
L 153.692731 437.698125 
L 154.425718 42.098125 
L 155.158706 42.098125 
L 155.891693 437.698125 
L 156.624681 42.098125 
L 157.357668 42.098125 
L 158.090656 437.698125 
L 158.823643 42.098125 
L 159.556631 437.698125 
L 160.289618 437.698125 
L 161.022606 42.098125 
L 162.488581 42.098125 
L 163.221569 437.698125 
L 163.954556 437.698125 
L 164.687544 42.098125 
L 165.420531 437.698125 
L 168.352481 437.698125 
L 169.085469 42.098125 
L 169.818456 42.098125 
L 170.551444 437.698125 
L 171.284431 437.698125 
L 172.017419 42.098125 
L 173.483394 42.098125 
L 174.216381 437.698125 
L 174.949369 42.098125 
L 175.682357 437.698125 
L 176.415344 42.098125 
L 177.148332 437.698125 
L 180.813269 437.698125 
L 181.546257 42.098125 
L 182.279244 437.698125 
L 183.012232 42.098125 
L 183.745219 437.698125 
L 184.478207 437.698125 
L 185.211194 42.098125 
L 185.944182 437.698125 
L 191.075095 437.698125 
L 191.808082 42.098125 
L 192.54107 437.698125 
L 193.274057 42.098125 
L 194.007045 42.098125 
L 194.740032 437.698125 
L 196.938995 437.698125 
L 197.671983 42.098125 
L 198.40497 437.698125 
L 199.137958 42.098125 
L 199.870945 437.698125 
L 200.603933 42.098125 
L 201.33692 42.098125 
L 202.069908 437.698125 
L 202.802895 42.098125 
L 203.535883 42.098125 
L 204.26887 437.698125 
L 205.001858 437.698125 
L 205.734845 42.098125 
L 206.467833 42.098125 
L 207.20082 437.698125 
L 207.933808 42.098125 
L 208.666796 437.698125 
L 209.399783 437.698125 
L 210.132771 42.098125 
L 210.865758 437.698125 
L 211.598746 42.098125 
L 212.331733 437.698125 
L 213.064721 42.098125 
L 213.797708 437.698125 
L 214.530696 42.098125 
L 218.928621 42.098125 
L 219.661609 437.698125 
L 220.394596 42.098125 
L 221.127584 437.698125 
L 221.860571 42.098125 
L 222.593559 42.098125 
L 223.326546 437.698125 
L 224.059534 42.098125 
L 224.792521 437.698125 
L 225.525509 42.098125 
L 228.457459 42.098125 
L 229.190446 437.698125 
L 229.923434 42.098125 
L 232.122397 42.098125 
L 232.855384 437.698125 
L 233.588372 437.698125 
L 234.321359 42.098125 
L 238.719284 42.098125 
L 239.452272 437.698125 
L 240.185259 42.098125 
L 240.918247 437.698125 
L 241.651235 42.098125 
L 242.384222 437.698125 
L 243.11721 437.698125 
L 243.850197 42.098125 
L 246.04916 42.098125 
L 246.782147 437.698125 
L 247.515135 42.098125 
L 254.84501 42.098125 
L 255.577998 437.698125 
L 256.310985 437.698125 
L 257.043973 42.098125 
L 257.77696 437.698125 
L 258.509948 42.098125 
L 259.242935 42.098125 
L 259.975923 437.698125 
L 260.70891 42.098125 
L 262.907873 42.098125 
L 263.640861 437.698125 
L 264.373848 42.098125 
L 276.101649 42.098125 
L 276.834636 437.698125 
L 277.567624 42.098125 
L 279.033599 42.098125 
L 279.766586 437.698125 
L 281.232561 437.698125 
L 281.965549 42.098125 
L 282.698536 437.698125 
L 283.431524 42.098125 
L 286.363474 42.098125 
L 287.096462 437.698125 
L 287.829449 42.098125 
L 290.028412 42.098125 
L 290.761399 437.698125 
L 291.494387 42.098125 
L 293.693349 42.098125 
L 294.426337 437.698125 
L 295.159324 42.098125 
L 295.892312 437.698125 
L 296.6253 42.098125 
L 297.358287 437.698125 
L 298.091275 42.098125 
L 299.55725 42.098125 
L 300.290237 437.698125 
L 301.023225 437.698125 
L 301.756212 42.098125 
L 303.955175 42.098125 
L 304.688162 437.698125 
L 305.42115 42.098125 
L 308.3531 42.098125 
L 309.086088 437.698125 
L 310.552063 437.698125 
L 311.28505 42.098125 
L 312.018038 437.698125 
L 312.751025 42.098125 
L 315.682975 42.098125 
L 316.415963 437.698125 
L 317.14895 42.098125 
L 317.881938 42.098125 
L 318.614925 437.698125 
L 319.347913 42.098125 
L 320.080901 42.098125 
L 320.813888 437.698125 
L 321.546876 437.698125 
L 322.279863 42.098125 
L 323.012851 437.698125 
L 323.745838 42.098125 
L 331.075714 42.098125 
L 331.808701 437.698125 
L 332.541689 42.098125 
L 336.206626 42.098125 
L 336.939614 437.698125 
L 338.405589 437.698125 
L 339.138576 42.098125 
L 341.337539 42.098125 
L 342.070527 437.698125 
L 342.803514 42.098125 
L 343.536502 437.698125 
L 344.269489 42.098125 
L 345.735464 42.098125 
L 346.468452 437.698125 
L 347.201439 437.698125 
L 347.934427 42.098125 
L 349.400402 42.098125 
L 350.133389 437.698125 
L 350.866377 42.098125 
L 351.599364 437.698125 
L 352.332352 42.098125 
L 353.798327 42.098125 
L 354.531315 437.698125 
L 355.264302 42.098125 
L 355.99729 437.698125 
L 356.730277 42.098125 
L 366.259115 42.098125 
L 366.992103 437.698125 
L 367.72509 42.098125 
L 368.458078 437.698125 
L 370.65704 437.698125 
L 371.390028 42.098125 
L 374.321978 42.098125 
L 375.054966 437.698125 
L 375.787953 42.098125 
L 376.520941 437.698125 
L 377.253928 437.698125 
L 377.986916 42.098125 
L 378.719903 42.098125 
L 379.452891 437.698125 
L 380.185878 42.098125 
L 380.918866 437.698125 
L 381.651853 42.098125 
L 383.117828 42.098125 
L 383.850816 437.698125 
L 384.583803 42.098125 
L 387.515754 42.098125 
L 388.248741 437.698125 
L 388.981729 42.098125 
L 391.913679 42.098125 
L 392.646666 437.698125 
L 393.379654 437.698125 
L 394.112641 42.098125 
L 394.845629 437.698125 
L 395.578616 42.098125 
L 396.311604 437.698125 
L 397.044592 42.098125 
L 398.510567 42.098125 
L 399.243554 437.698125 
L 399.976542 42.098125 
L 405.107454 42.098125 
L 405.840442 437.698125 
L 406.573429 42.098125 
L 410.971355 42.098125 
L 411.704342 437.698125 
L 412.43733 42.098125 
L 413.170317 437.698125 
L 413.903305 437.698125 
L 414.636292 42.098125 
L 416.835255 42.098125 
L 417.568242 437.698125 
L 418.30123 42.098125 
L 419.034218 437.698125 
L 419.767205 42.098125 
L 422.699155 42.098125 
L 423.432143 437.698125 
L 424.16513 42.098125 
L 424.898118 437.698125 
L 425.631105 42.098125 
L 427.09708 42.098125 
L 427.830068 437.698125 
L 428.563055 437.698125 
L 429.296043 42.098125 
L 430.762018 42.098125 
L 431.495006 437.698125 
L 432.227993 42.098125 
L 443.222806 42.098125 
L 443.955794 437.698125 
L 444.688781 42.098125 
L 447.620731 42.098125 
L 448.353719 437.698125 
L 449.086706 42.098125 
L 451.285669 42.098125 
L 452.018656 437.698125 
L 452.751644 42.098125 
L 454.950607 42.098125 
L 455.683594 437.698125 
L 456.416582 42.098125 
L 457.149569 437.698125 
L 457.882557 42.098125 
L 459.348532 42.098125 
L 460.081519 437.698125 
L 460.814507 437.698125 
L 461.547494 42.098125 
L 462.280482 437.698125 
L 463.013469 437.698125 
L 463.746457 42.098125 
L 466.678407 42.098125 
L 467.411395 437.698125 
L 468.144382 437.698125 
L 468.87737 42.098125 
L 469.610357 437.698125 
L 470.343345 42.098125 
L 472.542307 42.098125 
L 473.275295 437.698125 
L 474.008282 42.098125 
L 474.74127 437.698125 
L 476.207245 437.698125 
L 476.940233 42.098125 
L 482.071145 42.098125 
L 482.804133 437.698125 
L 483.53712 42.098125 
L 484.270108 437.698125 
L 485.003095 42.098125 
L 487.935046 42.098125 
L 488.668033 437.698125 
L 489.401021 42.098125 
L 490.134008 437.698125 
L 490.866996 42.098125 
L 492.332971 42.098125 
L 493.065958 437.698125 
L 493.798946 437.698125 
L 494.531933 42.098125 
L 505.526746 42.098125 
L 506.259734 437.698125 
L 506.992721 42.098125 
L 507.725709 42.098125 
L 508.458697 437.698125 
L 509.191684 42.098125 
L 509.924672 42.098125 
L 510.657659 437.698125 
L 511.390647 42.098125 
L 513.589609 42.098125 
L 514.322597 437.698125 
L 515.055584 437.698125 
L 515.788572 42.098125 
L 520.919485 42.098125 
L 521.652472 437.698125 
L 522.38546 42.098125 
L 523.118447 437.698125 
L 523.851435 42.098125 
L 527.516372 42.098125 
L 528.24936 437.698125 
L 528.982347 437.698125 
L 529.715335 42.098125 
L 531.18131 42.098125 
L 531.914298 437.698125 
L 532.647285 42.098125 
L 533.380273 437.698125 
L 534.11326 42.098125 
L 535.579235 42.098125 
L 536.312223 437.698125 
L 537.04521 42.098125 
L 537.778198 42.098125 
L 538.511185 437.698125 
L 539.244173 42.098125 
L 541.443136 42.098125 
L 542.176123 437.698125 
L 542.909111 42.098125 
L 557.568861 42.098125 
L 558.301849 437.698125 
L 559.034836 42.098125 
L 559.767824 42.098125 
L 560.500811 437.698125 
L 561.233799 42.098125 
L 561.966786 437.698125 
L 562.699774 42.098125 
L 563.432762 42.098125 
L 564.165749 437.698125 
L 564.898737 42.098125 
L 566.364712 42.098125 
L 567.097699 437.698125 
L 567.830687 42.098125 
L 568.563674 437.698125 
L 569.296662 42.098125 
L 570.029649 42.098125 
L 570.762637 437.698125 
L 571.495624 42.098125 
L 572.228612 437.698125 
L 572.961599 42.098125 
L 578.092512 42.098125 
L 578.8255 437.698125 
L 579.558487 437.698125 
L 580.291475 42.098125 
L 581.024462 437.698125 
L 581.75745 42.098125 
L 585.422388 42.098125 
L 586.155375 437.698125 
L 586.888363 42.098125 
L 590.5533 42.098125 
L 591.286288 437.698125 
L 592.019275 42.098125 
L 594.218238 42.098125 
L 594.951225 437.698125 
L 596.4172 437.698125 
L 597.150188 42.098125 
L 600.815126 42.098125 
L 601.548113 437.698125 
L 602.281101 42.098125 
L 603.014088 437.698125 
L 603.747076 42.098125 
L 604.480063 437.698125 
L 605.213051 42.098125 
L 605.946038 437.698125 
L 606.679026 437.698125 
L 607.412013 42.098125 
L 608.145001 437.698125 
L 608.877989 42.098125 
L 612.542926 42.098125 
L 613.275914 437.698125 
L 614.008901 42.098125 
L 614.741889 42.098125 
L 615.474876 437.698125 
L 616.207864 437.698125 
L 616.940851 42.098125 
L 617.673839 42.098125 
L 618.406826 437.698125 
L 619.139814 437.698125 
L 619.872802 42.098125 
L 620.605789 42.098125 
L 621.338777 437.698125 
L 622.071764 42.098125 
L 622.804752 42.098125 
L 623.537739 437.698125 
L 624.270727 42.098125 
L 629.401639 42.098125 
L 630.134627 437.698125 
L 630.867615 42.098125 
L 639.663465 42.098125 
L 640.396452 437.698125 
L 641.12944 42.098125 
L 643.328403 42.098125 
L 644.06139 437.698125 
L 644.794378 42.098125 
L 645.527365 437.698125 
L 646.260353 42.098125 
L 649.92529 42.098125 
L 650.658278 437.698125 
L 651.391265 42.098125 
L 654.323216 42.098125 
L 655.056203 437.698125 
L 655.789191 42.098125 
L 659.454128 42.098125 
L 660.187116 437.698125 
L 660.920103 42.098125 
L 667.516991 42.098125 
L 668.249979 437.698125 
L 668.982966 42.098125 
L 677.045829 42.098125 
L 677.778817 437.698125 
L 678.511804 42.098125 
L 681.443754 42.098125 
L 682.176742 437.698125 
L 682.909729 437.698125 
L 683.642717 42.098125 
L 684.375704 42.098125 
L 685.108692 437.698125 
L 685.84168 42.098125 
L 687.307655 42.098125 
L 688.040642 437.698125 
L 688.77363 42.098125 
L 695.370517 42.098125 
L 696.103505 437.698125 
L 697.56948 437.698125 
L 698.302468 42.098125 
L 699.768443 42.098125 
L 700.50143 437.698125 
L 701.234418 42.098125 
L 707.098318 42.098125 
L 707.831306 437.698125 
L 708.564293 437.698125 
L 709.297281 42.098125 
L 711.496243 42.098125 
L 712.229231 437.698125 
L 712.962218 42.098125 
L 716.627156 42.098125 
L 717.360143 437.698125 
L 718.093131 42.098125 
L 718.826119 437.698125 
L 719.559106 42.098125 
L 720.292094 437.698125 
L 721.025081 42.098125 
L 721.758069 437.698125 
L 722.491056 437.698125 
L 723.224044 42.098125 
L 723.957031 437.698125 
L 724.690019 42.098125 
L 726.155994 42.098125 
L 726.888981 437.698125 
L 727.621969 42.098125 
L 732.752882 42.098125 
L 733.485869 437.698125 
L 734.218857 42.098125 
L 734.951844 42.098125 
L 735.684832 437.698125 
L 736.417819 42.098125 
L 739.349769 42.098125 
L 739.349769 42.098125 
" clip-path="url(#p89dda28c19)" style="fill: none; stroke: #1f77b4; stroke-opacity: 0.8; stroke-width: 1.2; stroke-linecap: square"/>
   </g>
   <g id="line2d_26">
    <path d="M 80.393977 437.698125 
L 85.52489 437.698125 
L 86.257878 42.098125 
L 86.990865 42.098125 
L 87.723853 437.698125 
L 89.189828 437.698125 
L 89.922815 42.098125 
L 90.655803 437.698125 
L 92.854765 437.698125 
L 93.587753 42.098125 
L 94.32074 437.698125 
L 95.053728 437.698125 
L 95.786715 42.098125 
L 96.519703 437.698125 
L 97.985678 437.698125 
L 98.718666 42.098125 
L 99.451653 437.698125 
L 100.184641 437.698125 
L 100.917628 42.098125 
L 101.650616 437.698125 
L 102.383603 437.698125 
L 103.116591 42.098125 
L 103.849578 437.698125 
L 104.582566 42.098125 
L 105.315553 437.698125 
L 106.048541 42.098125 
L 106.781528 437.698125 
L 108.980491 437.698125 
L 109.713479 42.098125 
L 110.446466 437.698125 
L 112.645429 437.698125 
L 113.378416 42.098125 
L 114.111404 42.098125 
L 114.844391 437.698125 
L 121.441279 437.698125 
L 122.174267 42.098125 
L 122.907254 42.098125 
L 123.640242 437.698125 
L 124.373229 42.098125 
L 125.106217 42.098125 
L 125.839204 437.698125 
L 128.038167 437.698125 
L 128.771154 42.098125 
L 129.504142 437.698125 
L 130.23713 42.098125 
L 130.970117 437.698125 
L 139.03298 437.698125 
L 139.765967 42.098125 
L 140.498955 42.098125 
L 141.231943 437.698125 
L 141.96493 437.698125 
L 142.697918 42.098125 
L 144.163893 42.098125 
L 144.89688 437.698125 
L 148.561818 437.698125 
L 149.294805 42.098125 
L 150.027793 437.698125 
L 152.959743 437.698125 
L 153.692731 42.098125 
L 155.891693 42.098125 
L 156.624681 437.698125 
L 157.357668 42.098125 
L 158.090656 437.698125 
L 158.823643 42.098125 
L 159.556631 437.698125 
L 161.022606 437.698125 
L 161.755593 42.098125 
L 162.488581 42.098125 
L 163.221569 437.698125 
L 164.687544 437.698125 
L 165.420531 42.098125 
L 166.153519 437.698125 
L 169.085469 437.698125 
L 169.818456 42.098125 
L 170.551444 437.698125 
L 171.284431 437.698125 
L 172.017419 42.098125 
L 173.483394 42.098125 
L 174.216381 437.698125 
L 175.682357 437.698125 
L 176.415344 42.098125 
L 177.148332 437.698125 
L 177.881319 42.098125 
L 178.614307 437.698125 
L 180.813269 437.698125 
L 181.546257 42.098125 
L 182.279244 437.698125 
L 183.012232 42.098125 
L 183.745219 42.098125 
L 184.478207 437.698125 
L 185.211194 42.098125 
L 185.944182 42.098125 
L 186.67717 437.698125 
L 188.876132 437.698125 
L 189.60912 42.098125 
L 190.342107 42.098125 
L 191.075095 437.698125 
L 192.54107 437.698125 
L 193.274057 42.098125 
L 194.007045 42.098125 
L 194.740032 437.698125 
L 196.938995 437.698125 
L 197.671983 42.098125 
L 198.40497 437.698125 
L 199.870945 437.698125 
L 200.603933 42.098125 
L 201.33692 437.698125 
L 202.069908 437.698125 
L 202.802895 42.098125 
L 203.535883 42.098125 
L 204.26887 437.698125 
L 205.001858 437.698125 
L 205.734845 42.098125 
L 206.467833 42.098125 
L 207.20082 437.698125 
L 207.933808 42.098125 
L 208.666796 437.698125 
L 209.399783 42.098125 
L 210.132771 437.698125 
L 210.865758 42.098125 
L 211.598746 42.098125 
L 212.331733 437.698125 
L 213.064721 42.098125 
L 213.797708 437.698125 
L 214.530696 42.098125 
L 215.263683 437.698125 
L 215.996671 42.098125 
L 217.462646 42.098125 
L 218.195633 437.698125 
L 221.127584 437.698125 
L 221.860571 42.098125 
L 222.593559 437.698125 
L 223.326546 437.698125 
L 224.059534 42.098125 
L 224.792521 437.698125 
L 225.525509 42.098125 
L 227.724471 42.098125 
L 228.457459 437.698125 
L 229.190446 437.698125 
L 229.923434 42.098125 
L 230.656422 437.698125 
L 231.389409 437.698125 
L 232.122397 42.098125 
L 232.855384 437.698125 
L 234.321359 437.698125 
L 235.054347 42.098125 
L 235.787334 437.698125 
L 236.520322 42.098125 
L 240.185259 42.098125 
L 240.918247 437.698125 
L 241.651235 42.098125 
L 242.384222 437.698125 
L 243.11721 437.698125 
L 243.850197 42.098125 
L 244.583185 437.698125 
L 245.316172 42.098125 
L 246.04916 42.098125 
L 246.782147 437.698125 
L 247.515135 42.098125 
L 248.98111 42.098125 
L 249.714097 437.698125 
L 250.447085 42.098125 
L 251.180072 42.098125 
L 251.91306 437.698125 
L 252.646048 42.098125 
L 253.379035 437.698125 
L 254.112023 437.698125 
L 254.84501 42.098125 
L 255.577998 437.698125 
L 256.310985 42.098125 
L 257.043973 437.698125 
L 257.77696 437.698125 
L 258.509948 42.098125 
L 259.242935 42.098125 
L 259.975923 437.698125 
L 260.70891 42.098125 
L 262.907873 42.098125 
L 263.640861 437.698125 
L 264.373848 42.098125 
L 268.771773 42.098125 
L 269.504761 437.698125 
L 270.237748 42.098125 
L 273.169698 42.098125 
L 273.902686 437.698125 
L 274.635674 42.098125 
L 275.368661 437.698125 
L 276.101649 42.098125 
L 276.834636 437.698125 
L 277.567624 42.098125 
L 278.300611 42.098125 
L 279.033599 437.698125 
L 280.499574 437.698125 
L 281.232561 42.098125 
L 281.965549 42.098125 
L 282.698536 437.698125 
L 283.431524 42.098125 
L 286.363474 42.098125 
L 287.096462 437.698125 
L 288.562437 437.698125 
L 289.295424 42.098125 
L 290.028412 42.098125 
L 290.761399 437.698125 
L 291.494387 42.098125 
L 292.960362 42.098125 
L 293.693349 437.698125 
L 294.426337 437.698125 
L 295.159324 42.098125 
L 295.892312 42.098125 
L 296.6253 437.698125 
L 297.358287 42.098125 
L 298.091275 42.098125 
L 298.824262 437.698125 
L 299.55725 42.098125 
L 300.290237 437.698125 
L 301.023225 437.698125 
L 301.756212 42.098125 
L 303.955175 42.098125 
L 304.688162 437.698125 
L 305.42115 42.098125 
L 306.154137 42.098125 
L 306.887125 437.698125 
L 309.086088 437.698125 
L 309.819075 42.098125 
L 310.552063 437.698125 
L 311.28505 42.098125 
L 312.018038 437.698125 
L 312.751025 42.098125 
L 315.682975 42.098125 
L 316.415963 437.698125 
L 318.614925 437.698125 
L 319.347913 42.098125 
L 320.080901 42.098125 
L 320.813888 437.698125 
L 321.546876 42.098125 
L 323.745838 42.098125 
L 324.478826 437.698125 
L 325.211813 42.098125 
L 325.944801 42.098125 
L 326.677788 437.698125 
L 328.143763 437.698125 
L 328.876751 42.098125 
L 329.609738 437.698125 
L 331.808701 437.698125 
L 332.541689 42.098125 
L 333.274676 42.098125 
L 334.007664 437.698125 
L 334.740651 42.098125 
L 336.939614 42.098125 
L 337.672601 437.698125 
L 338.405589 437.698125 
L 339.138576 42.098125 
L 339.871564 437.698125 
L 340.604551 437.698125 
L 341.337539 42.098125 
L 342.803514 42.098125 
L 343.536502 437.698125 
L 344.269489 42.098125 
L 345.735464 42.098125 
L 346.468452 437.698125 
L 347.201439 42.098125 
L 347.934427 437.698125 
L 348.667414 42.098125 
L 349.400402 42.098125 
L 350.133389 437.698125 
L 350.866377 42.098125 
L 351.599364 437.698125 
L 352.332352 437.698125 
L 353.06534 42.098125 
L 353.798327 42.098125 
L 354.531315 437.698125 
L 355.264302 42.098125 
L 355.99729 437.698125 
L 356.730277 42.098125 
L 357.463265 42.098125 
L 358.196252 437.698125 
L 358.92924 42.098125 
L 366.259115 42.098125 
L 366.992103 437.698125 
L 368.458078 437.698125 
L 369.191065 42.098125 
L 369.924053 437.698125 
L 370.65704 437.698125 
L 371.390028 42.098125 
L 374.321978 42.098125 
L 375.054966 437.698125 
L 375.787953 42.098125 
L 376.520941 437.698125 
L 377.253928 42.098125 
L 378.719903 42.098125 
L 379.452891 437.698125 
L 380.185878 42.098125 
L 380.918866 437.698125 
L 381.651853 42.098125 
L 383.117828 42.098125 
L 383.850816 437.698125 
L 384.583803 42.098125 
L 388.981729 42.098125 
L 389.714716 437.698125 
L 390.447704 42.098125 
L 392.646666 42.098125 
L 393.379654 437.698125 
L 394.112641 42.098125 
L 394.845629 437.698125 
L 395.578616 42.098125 
L 396.311604 437.698125 
L 397.044592 42.098125 
L 398.510567 42.098125 
L 399.243554 437.698125 
L 399.976542 42.098125 
L 402.908492 42.098125 
L 403.641479 437.698125 
L 404.374467 42.098125 
L 405.107454 437.698125 
L 405.840442 437.698125 
L 406.573429 42.098125 
L 410.971355 42.098125 
L 411.704342 437.698125 
L 412.43733 42.098125 
L 413.170317 42.098125 
L 413.903305 437.698125 
L 414.636292 42.098125 
L 415.36928 42.098125 
L 416.102267 437.698125 
L 416.835255 42.098125 
L 417.568242 437.698125 
L 418.30123 42.098125 
L 419.034218 437.698125 
L 419.767205 437.698125 
L 420.500193 42.098125 
L 427.830068 42.098125 
L 428.563055 437.698125 
L 429.296043 42.098125 
L 430.029031 42.098125 
L 430.762018 437.698125 
L 431.495006 437.698125 
L 432.227993 42.098125 
L 443.222806 42.098125 
L 443.955794 437.698125 
L 444.688781 42.098125 
L 445.421769 437.698125 
L 446.154756 42.098125 
L 446.887744 42.098125 
L 447.620731 437.698125 
L 448.353719 437.698125 
L 449.086706 42.098125 
L 449.819694 42.098125 
L 450.552681 437.698125 
L 451.285669 42.098125 
L 454.217619 42.098125 
L 454.950607 437.698125 
L 455.683594 437.698125 
L 456.416582 42.098125 
L 457.149569 437.698125 
L 457.882557 42.098125 
L 461.547494 42.098125 
L 462.280482 437.698125 
L 463.013469 437.698125 
L 463.746457 42.098125 
L 465.212432 42.098125 
L 465.94542 437.698125 
L 466.678407 42.098125 
L 467.411395 42.098125 
L 468.144382 437.698125 
L 468.87737 42.098125 
L 472.542307 42.098125 
L 473.275295 437.698125 
L 474.008282 42.098125 
L 474.74127 437.698125 
L 476.207245 437.698125 
L 476.940233 42.098125 
L 483.53712 42.098125 
L 484.270108 437.698125 
L 485.003095 42.098125 
L 485.736083 437.698125 
L 486.469071 42.098125 
L 487.202058 437.698125 
L 487.935046 42.098125 
L 488.668033 437.698125 
L 489.401021 42.098125 
L 490.134008 437.698125 
L 490.866996 42.098125 
L 492.332971 42.098125 
L 493.065958 437.698125 
L 493.798946 42.098125 
L 494.531933 437.698125 
L 495.264921 42.098125 
L 499.662846 42.098125 
L 500.395834 437.698125 
L 501.128821 42.098125 
L 504.793759 42.098125 
L 505.526746 437.698125 
L 506.259734 437.698125 
L 506.992721 42.098125 
L 508.458697 42.098125 
L 509.191684 437.698125 
L 509.924672 42.098125 
L 510.657659 437.698125 
L 511.390647 42.098125 
L 513.589609 42.098125 
L 514.322597 437.698125 
L 515.788572 437.698125 
L 516.521559 42.098125 
L 517.254547 437.698125 
L 517.987534 42.098125 
L 520.186497 42.098125 
L 520.919485 437.698125 
L 521.652472 42.098125 
L 522.38546 42.098125 
L 523.118447 437.698125 
L 523.851435 42.098125 
L 525.31741 42.098125 
L 526.050397 437.698125 
L 526.783385 437.698125 
L 527.516372 42.098125 
L 528.24936 437.698125 
L 528.982347 437.698125 
L 529.715335 42.098125 
L 531.18131 42.098125 
L 531.914298 437.698125 
L 532.647285 437.698125 
L 533.380273 42.098125 
L 534.11326 42.098125 
L 534.846248 437.698125 
L 536.312223 437.698125 
L 537.04521 42.098125 
L 537.778198 42.098125 
L 538.511185 437.698125 
L 539.244173 42.098125 
L 539.97716 437.698125 
L 540.710148 437.698125 
L 541.443136 42.098125 
L 542.176123 437.698125 
L 542.909111 42.098125 
L 550.238986 42.098125 
L 550.971973 437.698125 
L 551.704961 42.098125 
L 552.437949 437.698125 
L 553.170936 42.098125 
L 555.369899 42.098125 
L 556.102886 437.698125 
L 556.835874 42.098125 
L 557.568861 42.098125 
L 558.301849 437.698125 
L 559.034836 42.098125 
L 559.767824 42.098125 
L 560.500811 437.698125 
L 561.233799 42.098125 
L 561.966786 437.698125 
L 562.699774 42.098125 
L 563.432762 42.098125 
L 564.165749 437.698125 
L 564.898737 42.098125 
L 566.364712 42.098125 
L 567.097699 437.698125 
L 567.830687 42.098125 
L 569.296662 42.098125 
L 570.029649 437.698125 
L 570.762637 437.698125 
L 571.495624 42.098125 
L 572.228612 437.698125 
L 572.961599 42.098125 
L 573.694587 42.098125 
L 574.427575 437.698125 
L 575.160562 42.098125 
L 578.092512 42.098125 
L 578.8255 437.698125 
L 579.558487 437.698125 
L 580.291475 42.098125 
L 582.490437 42.098125 
L 583.223425 437.698125 
L 583.956412 42.098125 
L 584.6894 437.698125 
L 585.422388 42.098125 
L 586.155375 437.698125 
L 586.888363 42.098125 
L 587.62135 42.098125 
L 588.354338 437.698125 
L 589.087325 42.098125 
L 590.5533 42.098125 
L 591.286288 437.698125 
L 592.019275 437.698125 
L 592.752263 42.098125 
L 593.48525 42.098125 
L 594.218238 437.698125 
L 596.4172 437.698125 
L 597.150188 42.098125 
L 603.014088 42.098125 
L 603.747076 437.698125 
L 604.480063 42.098125 
L 605.213051 42.098125 
L 605.946038 437.698125 
L 606.679026 437.698125 
L 607.412013 42.098125 
L 608.145001 437.698125 
L 608.877989 42.098125 
L 612.542926 42.098125 
L 613.275914 437.698125 
L 614.008901 42.098125 
L 615.474876 42.098125 
L 616.207864 437.698125 
L 616.940851 42.098125 
L 617.673839 42.098125 
L 618.406826 437.698125 
L 619.139814 437.698125 
L 619.872802 42.098125 
L 620.605789 42.098125 
L 621.338777 437.698125 
L 622.071764 42.098125 
L 629.401639 42.098125 
L 630.134627 437.698125 
L 630.867615 42.098125 
L 633.066577 42.098125 
L 633.799565 437.698125 
L 634.532552 42.098125 
L 635.26554 437.698125 
L 635.998527 42.098125 
L 636.731515 42.098125 
L 637.464502 437.698125 
L 638.19749 42.098125 
L 639.663465 42.098125 
L 640.396452 437.698125 
L 641.12944 42.098125 
L 643.328403 42.098125 
L 644.06139 437.698125 
L 644.794378 42.098125 
L 645.527365 437.698125 
L 646.260353 42.098125 
L 647.726328 42.098125 
L 648.459315 437.698125 
L 649.192303 42.098125 
L 649.92529 437.698125 
L 650.658278 437.698125 
L 651.391265 42.098125 
L 654.323216 42.098125 
L 655.056203 437.698125 
L 655.789191 42.098125 
L 659.454128 42.098125 
L 660.187116 437.698125 
L 660.920103 437.698125 
L 661.653091 42.098125 
L 662.386078 437.698125 
L 663.119066 42.098125 
L 663.852054 437.698125 
L 664.585041 42.098125 
L 666.051016 42.098125 
L 666.784004 437.698125 
L 667.516991 42.098125 
L 668.249979 437.698125 
L 668.982966 42.098125 
L 669.715954 42.098125 
L 670.448941 437.698125 
L 671.181929 42.098125 
L 671.914916 42.098125 
L 672.647904 437.698125 
L 673.380891 437.698125 
L 674.113879 42.098125 
L 677.045829 42.098125 
L 677.778817 437.698125 
L 678.511804 437.698125 
L 679.244792 42.098125 
L 680.710767 42.098125 
L 681.443754 437.698125 
L 682.176742 437.698125 
L 682.909729 42.098125 
L 683.642717 437.698125 
L 684.375704 42.098125 
L 685.108692 437.698125 
L 685.84168 42.098125 
L 690.972592 42.098125 
L 691.70558 437.698125 
L 692.438567 437.698125 
L 693.171555 42.098125 
L 695.370517 42.098125 
L 696.103505 437.698125 
L 696.836493 42.098125 
L 700.50143 42.098125 
L 701.234418 437.698125 
L 701.967405 437.698125 
L 702.700393 42.098125 
L 703.43338 42.098125 
L 704.166368 437.698125 
L 704.899355 42.098125 
L 705.632343 437.698125 
L 706.36533 42.098125 
L 707.098318 42.098125 
L 707.831306 437.698125 
L 708.564293 42.098125 
L 719.559106 42.098125 
L 720.292094 437.698125 
L 721.025081 42.098125 
L 721.758069 42.098125 
L 722.491056 437.698125 
L 723.224044 42.098125 
L 726.155994 42.098125 
L 726.888981 437.698125 
L 727.621969 42.098125 
L 732.752882 42.098125 
L 733.485869 437.698125 
L 734.218857 42.098125 
L 734.951844 42.098125 
L 735.684832 437.698125 
L 736.417819 437.698125 
L 737.150807 42.098125 
L 743.014707 42.098125 
L 743.747695 437.698125 
L 744.480682 42.098125 
L 745.21367 437.698125 
L 745.946657 42.098125 
L 748.14562 42.098125 
L 748.878607 437.698125 
L 749.611595 437.698125 
L 750.344582 42.098125 
L 751.07757 437.698125 
L 751.810557 42.098125 
L 754.00952 42.098125 
L 754.742508 437.698125 
L 756.208483 437.698125 
L 756.94147 42.098125 
L 757.674458 42.098125 
L 758.407445 437.698125 
L 759.140433 42.098125 
L 759.87342 437.698125 
L 761.339395 437.698125 
L 762.072383 42.098125 
L 762.80537 437.698125 
L 763.538358 42.098125 
L 764.271346 437.698125 
L 765.004333 42.098125 
L 766.470308 42.098125 
L 767.203296 437.698125 
L 767.936283 42.098125 
L 770.868233 42.098125 
L 771.601221 437.698125 
L 772.334208 42.098125 
L 774.533171 42.098125 
L 775.266159 437.698125 
L 775.999146 42.098125 
L 778.198109 42.098125 
L 778.931096 437.698125 
L 779.664084 437.698125 
L 780.397071 42.098125 
L 781.863046 42.098125 
L 782.596034 437.698125 
L 783.329021 42.098125 
L 785.527984 42.098125 
L 786.260972 437.698125 
L 786.993959 42.098125 
L 787.726947 437.698125 
L 788.459934 42.098125 
L 790.658897 42.098125 
L 791.391884 437.698125 
L 792.124872 42.098125 
L 794.323834 42.098125 
L 795.056822 437.698125 
L 795.789809 42.098125 
L 796.522797 437.698125 
L 797.255785 42.098125 
L 797.988772 437.698125 
L 798.72176 42.098125 
L 800.187735 42.098125 
L 800.920722 437.698125 
L 801.65371 42.098125 
L 810.44956 42.098125 
L 811.182548 437.698125 
L 811.915535 42.098125 
L 812.648523 42.098125 
L 812.648523 42.098125 
" clip-path="url(#p89dda28c19)" style="fill: none; stroke: #ff7f0e; stroke-opacity: 0.8; stroke-width: 1.2; stroke-linecap: square"/>
   </g>
   <g id="line2d_27">
    <path d="M 80.393977 437.698125 
L 85.52489 437.698125 
L 86.257878 42.098125 
L 86.990865 42.098125 
L 87.723853 437.698125 
L 89.189828 437.698125 
L 89.922815 42.098125 
L 90.655803 437.698125 
L 92.854765 437.698125 
L 93.587753 42.098125 
L 94.32074 437.698125 
L 97.252691 437.698125 
L 97.985678 42.098125 
L 98.718666 437.698125 
L 100.184641 437.698125 
L 100.917628 42.098125 
L 101.650616 42.098125 
L 102.383603 437.698125 
L 107.514516 437.698125 
L 108.247504 42.098125 
L 108.980491 437.698125 
L 109.713479 42.098125 
L 110.446466 437.698125 
L 118.509329 437.698125 
L 119.242317 42.098125 
L 119.975304 437.698125 
L 121.441279 437.698125 
L 122.174267 42.098125 
L 122.907254 42.098125 
L 123.640242 437.698125 
L 124.373229 42.098125 
L 125.106217 42.098125 
L 125.839204 437.698125 
L 126.572192 437.698125 
L 127.305179 42.098125 
L 128.038167 437.698125 
L 128.771154 42.098125 
L 130.23713 42.098125 
L 130.970117 437.698125 
L 131.703105 437.698125 
L 132.436092 42.098125 
L 133.16908 437.698125 
L 136.10103 437.698125 
L 136.834017 42.098125 
L 137.567005 437.698125 
L 139.03298 437.698125 
L 139.765967 42.098125 
L 140.498955 437.698125 
L 141.96493 437.698125 
L 142.697918 42.098125 
L 143.430905 42.098125 
L 144.163893 437.698125 
L 144.89688 42.098125 
L 145.629868 437.698125 
L 147.095843 437.698125 
L 147.82883 42.098125 
L 150.027793 42.098125 
L 150.76078 437.698125 
L 152.959743 437.698125 
L 153.692731 42.098125 
L 157.357668 42.098125 
L 158.090656 437.698125 
L 158.823643 42.098125 
L 159.556631 437.698125 
L 160.289618 42.098125 
L 161.022606 437.698125 
L 161.755593 42.098125 
L 163.221569 42.098125 
L 163.954556 437.698125 
L 164.687544 437.698125 
L 165.420531 42.098125 
L 166.153519 437.698125 
L 171.284431 437.698125 
L 172.017419 42.098125 
L 173.483394 42.098125 
L 174.216381 437.698125 
L 174.949369 42.098125 
L 175.682357 437.698125 
L 176.415344 42.098125 
L 181.546257 42.098125 
L 182.279244 437.698125 
L 183.012232 437.698125 
L 183.745219 42.098125 
L 184.478207 437.698125 
L 185.211194 42.098125 
L 186.67717 42.098125 
L 187.410157 437.698125 
L 188.876132 437.698125 
L 189.60912 42.098125 
L 190.342107 437.698125 
L 191.075095 437.698125 
L 191.808082 42.098125 
L 192.54107 437.698125 
L 193.274057 42.098125 
L 194.007045 437.698125 
L 197.671983 437.698125 
L 198.40497 42.098125 
L 199.137958 437.698125 
L 199.870945 437.698125 
L 200.603933 42.098125 
L 201.33692 42.098125 
L 202.069908 437.698125 
L 202.802895 42.098125 
L 203.535883 42.098125 
L 204.26887 437.698125 
L 205.001858 42.098125 
L 205.734845 42.098125 
L 206.467833 437.698125 
L 207.20082 42.098125 
L 207.933808 42.098125 
L 208.666796 437.698125 
L 210.132771 437.698125 
L 210.865758 42.098125 
L 214.530696 42.098125 
L 215.263683 437.698125 
L 215.996671 42.098125 
L 218.928621 42.098125 
L 219.661609 437.698125 
L 220.394596 42.098125 
L 222.593559 42.098125 
L 223.326546 437.698125 
L 224.059534 42.098125 
L 224.792521 437.698125 
L 225.525509 42.098125 
L 230.656422 42.098125 
L 231.389409 437.698125 
L 232.122397 42.098125 
L 232.855384 437.698125 
L 233.588372 437.698125 
L 234.321359 42.098125 
L 235.054347 42.098125 
L 235.787334 437.698125 
L 236.520322 42.098125 
L 237.253309 437.698125 
L 237.986297 42.098125 
L 240.185259 42.098125 
L 240.918247 437.698125 
L 241.651235 42.098125 
L 242.384222 437.698125 
L 243.11721 42.098125 
L 244.583185 42.098125 
L 245.316172 437.698125 
L 246.04916 42.098125 
L 248.248122 42.098125 
L 248.98111 437.698125 
L 249.714097 42.098125 
L 250.447085 42.098125 
L 251.180072 437.698125 
L 251.91306 42.098125 
L 252.646048 42.098125 
L 253.379035 437.698125 
L 254.112023 437.698125 
L 254.84501 42.098125 
L 255.577998 437.698125 
L 256.310985 42.098125 
L 257.043973 42.098125 
L 257.77696 437.698125 
L 258.509948 437.698125 
L 259.242935 42.098125 
L 259.975923 437.698125 
L 260.70891 42.098125 
L 262.907873 42.098125 
L 263.640861 437.698125 
L 264.373848 42.098125 
L 265.106836 42.098125 
L 265.839823 437.698125 
L 266.572811 42.098125 
L 267.305798 437.698125 
L 268.038786 437.698125 
L 268.771773 42.098125 
L 269.504761 437.698125 
L 270.237748 42.098125 
L 270.970736 437.698125 
L 271.703723 42.098125 
L 272.436711 437.698125 
L 273.169698 42.098125 
L 276.101649 42.098125 
L 276.834636 437.698125 
L 277.567624 437.698125 
L 278.300611 42.098125 
L 279.033599 42.098125 
L 279.766586 437.698125 
L 280.499574 437.698125 
L 281.232561 42.098125 
L 281.965549 42.098125 
L 282.698536 437.698125 
L 283.431524 42.098125 
L 284.164511 437.698125 
L 284.897499 42.098125 
L 290.028412 42.098125 
L 290.761399 437.698125 
L 291.494387 42.098125 
L 293.693349 42.098125 
L 294.426337 437.698125 
L 295.159324 42.098125 
L 296.6253 42.098125 
L 297.358287 437.698125 
L 298.824262 437.698125 
L 299.55725 42.098125 
L 300.290237 42.098125 
L 301.023225 437.698125 
L 301.756212 42.098125 
L 302.4892 42.098125 
L 303.222187 437.698125 
L 303.955175 42.098125 
L 304.688162 437.698125 
L 305.42115 42.098125 
L 308.3531 42.098125 
L 309.086088 437.698125 
L 311.28505 437.698125 
L 312.018038 42.098125 
L 316.415963 42.098125 
L 317.14895 437.698125 
L 317.881938 42.098125 
L 318.614925 437.698125 
L 319.347913 42.098125 
L 323.012851 42.098125 
L 323.745838 437.698125 
L 324.478826 42.098125 
L 326.677788 42.098125 
L 327.410776 437.698125 
L 328.143763 42.098125 
L 328.876751 42.098125 
L 329.609738 437.698125 
L 330.342726 42.098125 
L 331.075714 42.098125 
L 331.808701 437.698125 
L 332.541689 42.098125 
L 333.274676 437.698125 
L 334.007664 42.098125 
L 336.206626 42.098125 
L 336.939614 437.698125 
L 337.672601 437.698125 
L 338.405589 42.098125 
L 339.871564 42.098125 
L 340.604551 437.698125 
L 342.070527 437.698125 
L 342.803514 42.098125 
L 345.735464 42.098125 
L 346.468452 437.698125 
L 347.201439 42.098125 
L 347.934427 437.698125 
L 348.667414 42.098125 
L 349.400402 42.098125 
L 350.133389 437.698125 
L 351.599364 437.698125 
L 352.332352 42.098125 
L 353.798327 42.098125 
L 354.531315 437.698125 
L 355.264302 42.098125 
L 355.99729 437.698125 
L 356.730277 42.098125 
L 357.463265 42.098125 
L 358.196252 437.698125 
L 358.92924 42.098125 
L 361.86119 42.098125 
L 362.594177 437.698125 
L 363.327165 42.098125 
L 364.060153 42.098125 
L 364.79314 437.698125 
L 365.526128 42.098125 
L 366.259115 42.098125 
L 366.992103 437.698125 
L 367.72509 42.098125 
L 368.458078 437.698125 
L 369.191065 42.098125 
L 369.924053 437.698125 
L 370.65704 437.698125 
L 371.390028 42.098125 
L 374.321978 42.098125 
L 375.054966 437.698125 
L 375.787953 42.098125 
L 376.520941 437.698125 
L 377.253928 437.698125 
L 377.986916 42.098125 
L 378.719903 437.698125 
L 379.452891 42.098125 
L 380.185878 437.698125 
L 380.918866 42.098125 
L 383.117828 42.098125 
L 383.850816 437.698125 
L 384.583803 42.098125 
L 392.646666 42.098125 
L 393.379654 437.698125 
L 394.112641 42.098125 
L 394.845629 437.698125 
L 395.578616 42.098125 
L 396.311604 437.698125 
L 397.044592 42.098125 
L 398.510567 42.098125 
L 399.243554 437.698125 
L 399.976542 42.098125 
L 405.107454 42.098125 
L 405.840442 437.698125 
L 406.573429 437.698125 
L 407.306417 42.098125 
L 408.772392 42.098125 
L 409.50538 437.698125 
L 410.238367 437.698125 
L 410.971355 42.098125 
L 411.704342 437.698125 
L 412.43733 42.098125 
L 413.170317 42.098125 
L 413.903305 437.698125 
L 414.636292 42.098125 
L 416.835255 42.098125 
L 417.568242 437.698125 
L 418.30123 42.098125 
L 419.034218 437.698125 
L 419.767205 42.098125 
L 421.23318 42.098125 
L 421.966168 437.698125 
L 422.699155 42.098125 
L 427.09708 42.098125 
L 427.830068 437.698125 
L 428.563055 437.698125 
L 429.296043 42.098125 
L 430.762018 42.098125 
L 431.495006 437.698125 
L 432.227993 42.098125 
L 443.222806 42.098125 
L 443.955794 437.698125 
L 444.688781 42.098125 
L 446.887744 42.098125 
L 447.620731 437.698125 
L 448.353719 42.098125 
L 449.819694 42.098125 
L 450.552681 437.698125 
L 451.285669 437.698125 
L 452.018656 42.098125 
L 453.484632 42.098125 
L 454.217619 437.698125 
L 455.683594 437.698125 
L 456.416582 42.098125 
L 457.149569 437.698125 
L 457.882557 42.098125 
L 458.615544 42.098125 
L 459.348532 437.698125 
L 460.814507 437.698125 
L 461.547494 42.098125 
L 462.280482 437.698125 
L 463.013469 42.098125 
L 464.479445 42.098125 
L 465.212432 437.698125 
L 465.94542 437.698125 
L 466.678407 42.098125 
L 467.411395 42.098125 
L 468.144382 437.698125 
L 468.87737 42.098125 
L 469.610357 437.698125 
L 470.343345 42.098125 
L 483.53712 42.098125 
L 484.270108 437.698125 
L 485.003095 42.098125 
L 486.469071 42.098125 
L 487.202058 437.698125 
L 487.935046 42.098125 
L 488.668033 437.698125 
L 489.401021 42.098125 
L 490.134008 437.698125 
L 490.866996 437.698125 
L 491.599983 42.098125 
L 492.332971 42.098125 
L 493.065958 437.698125 
L 493.798946 42.098125 
L 494.531933 437.698125 
L 495.264921 42.098125 
L 495.997908 42.098125 
L 496.730896 437.698125 
L 497.463884 42.098125 
L 499.662846 42.098125 
L 500.395834 437.698125 
L 501.128821 42.098125 
L 503.327784 42.098125 
L 504.060771 437.698125 
L 504.793759 42.098125 
L 505.526746 42.098125 
L 506.259734 437.698125 
L 506.992721 42.098125 
L 507.725709 42.098125 
L 508.458697 437.698125 
L 509.191684 437.698125 
L 509.924672 42.098125 
L 510.657659 42.098125 
L 511.390647 437.698125 
L 512.123634 42.098125 
L 513.589609 42.098125 
L 514.322597 437.698125 
L 515.055584 437.698125 
L 515.788572 42.098125 
L 520.919485 42.098125 
L 521.652472 437.698125 
L 522.38546 42.098125 
L 523.118447 437.698125 
L 523.851435 42.098125 
L 525.31741 42.098125 
L 526.050397 437.698125 
L 526.783385 437.698125 
L 527.516372 42.098125 
L 528.24936 437.698125 
L 528.982347 437.698125 
L 529.715335 42.098125 
L 531.18131 42.098125 
L 531.914298 437.698125 
L 532.647285 437.698125 
L 533.380273 42.098125 
L 534.11326 42.098125 
L 534.846248 437.698125 
L 535.579235 42.098125 
L 536.312223 437.698125 
L 537.04521 42.098125 
L 537.778198 42.098125 
L 538.511185 437.698125 
L 539.244173 42.098125 
L 539.97716 42.098125 
L 540.710148 437.698125 
L 542.176123 437.698125 
L 542.909111 42.098125 
L 543.642098 42.098125 
L 544.375086 437.698125 
L 545.108073 42.098125 
L 550.238986 42.098125 
L 550.971973 437.698125 
L 551.704961 42.098125 
L 552.437949 437.698125 
L 553.170936 437.698125 
L 553.903924 42.098125 
L 556.102886 42.098125 
L 556.835874 437.698125 
L 557.568861 42.098125 
L 558.301849 437.698125 
L 559.034836 42.098125 
L 560.500811 42.098125 
L 561.233799 437.698125 
L 561.966786 437.698125 
L 562.699774 42.098125 
L 566.364712 42.098125 
L 567.097699 437.698125 
L 567.830687 42.098125 
L 570.029649 42.098125 
L 570.762637 437.698125 
L 571.495624 42.098125 
L 572.228612 437.698125 
L 572.961599 42.098125 
L 573.694587 42.098125 
L 574.427575 437.698125 
L 575.160562 42.098125 
L 581.75745 42.098125 
L 582.490437 437.698125 
L 583.223425 42.098125 
L 585.422388 42.098125 
L 586.155375 437.698125 
L 586.888363 42.098125 
L 590.5533 42.098125 
L 591.286288 437.698125 
L 592.019275 437.698125 
L 592.752263 42.098125 
L 594.218238 42.098125 
L 594.951225 437.698125 
L 596.4172 437.698125 
L 597.150188 42.098125 
L 597.883176 42.098125 
L 598.616163 437.698125 
L 599.349151 42.098125 
L 600.082138 437.698125 
L 600.815126 42.098125 
L 601.548113 437.698125 
L 603.014088 437.698125 
L 603.747076 42.098125 
L 604.480063 437.698125 
L 605.213051 437.698125 
L 605.946038 42.098125 
L 606.679026 437.698125 
L 607.412013 42.098125 
L 608.145001 437.698125 
L 608.877989 42.098125 
L 611.809939 42.098125 
L 612.542926 437.698125 
L 613.275914 437.698125 
L 614.008901 42.098125 
L 618.406826 42.098125 
L 619.139814 437.698125 
L 619.872802 42.098125 
L 634.532552 42.098125 
L 635.26554 437.698125 
L 635.998527 42.098125 
L 639.663465 42.098125 
L 640.396452 437.698125 
L 641.12944 437.698125 
L 641.862428 42.098125 
L 643.328403 42.098125 
L 644.06139 437.698125 
L 644.794378 42.098125 
L 645.527365 437.698125 
L 646.260353 42.098125 
L 646.99334 42.098125 
L 647.726328 437.698125 
L 648.459315 42.098125 
L 649.92529 42.098125 
L 650.658278 437.698125 
L 651.391265 42.098125 
L 652.124253 42.098125 
L 652.857241 437.698125 
L 653.590228 42.098125 
L 654.323216 42.098125 
L 655.056203 437.698125 
L 655.789191 42.098125 
L 658.721141 42.098125 
L 659.454128 437.698125 
L 660.187116 437.698125 
L 660.920103 42.098125 
L 661.653091 437.698125 
L 662.386078 437.698125 
L 663.119066 42.098125 
L 667.516991 42.098125 
L 668.249979 437.698125 
L 668.982966 42.098125 
L 671.181929 42.098125 
L 671.914916 437.698125 
L 672.647904 42.098125 
L 677.045829 42.098125 
L 677.778817 437.698125 
L 678.511804 437.698125 
L 679.244792 42.098125 
L 680.710767 42.098125 
L 681.443754 437.698125 
L 683.642717 437.698125 
L 684.375704 42.098125 
L 685.108692 437.698125 
L 685.84168 42.098125 
L 688.77363 42.098125 
L 689.506617 437.698125 
L 690.239605 42.098125 
L 695.370517 42.098125 
L 696.103505 437.698125 
L 696.836493 42.098125 
L 697.56948 437.698125 
L 698.302468 42.098125 
L 699.768443 42.098125 
L 700.50143 437.698125 
L 701.967405 437.698125 
L 702.700393 42.098125 
L 711.496243 42.098125 
L 712.229231 437.698125 
L 712.962218 42.098125 
L 719.559106 42.098125 
L 720.292094 437.698125 
L 721.025081 437.698125 
L 721.758069 42.098125 
L 722.491056 437.698125 
L 723.224044 42.098125 
L 723.957031 437.698125 
L 724.690019 42.098125 
L 725.423006 42.098125 
L 726.155994 437.698125 
L 726.888981 437.698125 
L 727.621969 42.098125 
L 729.087944 42.098125 
L 729.820931 437.698125 
L 730.553919 42.098125 
L 732.752882 42.098125 
L 733.485869 437.698125 
L 734.218857 42.098125 
L 734.951844 42.098125 
L 735.684832 437.698125 
L 736.417819 42.098125 
L 741.548732 42.098125 
L 742.28172 437.698125 
L 743.014707 42.098125 
L 743.747695 437.698125 
L 745.946657 437.698125 
L 746.679645 42.098125 
L 748.878607 42.098125 
L 749.611595 437.698125 
L 750.344582 42.098125 
L 754.742508 42.098125 
L 755.475495 437.698125 
L 756.208483 42.098125 
L 757.674458 42.098125 
L 758.407445 437.698125 
L 759.140433 42.098125 
L 759.87342 437.698125 
L 760.606408 437.698125 
L 761.339395 42.098125 
L 762.072383 42.098125 
L 762.80537 437.698125 
L 763.538358 42.098125 
L 764.271346 437.698125 
L 765.004333 42.098125 
L 767.203296 42.098125 
L 767.936283 437.698125 
L 768.669271 42.098125 
L 772.334208 42.098125 
L 773.067196 437.698125 
L 773.800183 42.098125 
L 778.198109 42.098125 
L 778.931096 437.698125 
L 779.664084 437.698125 
L 780.397071 42.098125 
L 781.863046 42.098125 
L 782.596034 437.698125 
L 783.329021 437.698125 
L 784.062009 42.098125 
L 785.527984 42.098125 
L 786.260972 437.698125 
L 786.993959 437.698125 
L 787.726947 42.098125 
L 789.192922 42.098125 
L 789.925909 437.698125 
L 790.658897 42.098125 
L 791.391884 42.098125 
L 792.124872 437.698125 
L 792.857859 42.098125 
L 795.789809 42.098125 
L 796.522797 437.698125 
L 797.255785 42.098125 
L 797.988772 437.698125 
L 798.72176 42.098125 
L 803.119685 42.098125 
L 803.852672 437.698125 
L 804.58566 42.098125 
L 805.318647 437.698125 
L 806.051635 42.098125 
L 807.51761 42.098125 
L 808.250598 437.698125 
L 808.983585 42.098125 
L 812.648523 42.098125 
L 812.648523 42.098125 
" clip-path="url(#p89dda28c19)" style="fill: none; stroke: #2ca02c; stroke-opacity: 0.8; stroke-width: 1.2; stroke-linecap: square"/>
   </g>
   <g id="patch_3">
    <path d="M 43.78125 457.478125 
L 43.78125 22.318125 
" style="fill: none; stroke: #000000; stroke-width: 0.8; stroke-linejoin: miter; stroke-linecap: square"/>
   </g>
   <g id="patch_4">
    <path d="M 849.26125 457.478125 
L 849.26125 22.318125 
" style="fill: none; stroke: #000000; stroke-width: 0.8; stroke-linejoin: miter; stroke-linecap: square"/>
   </g>
   <g id="patch_5">
    <path d="M 43.78125 457.478125 
L 849.26125 457.478125 
" style="fill: none; stroke: #000000; stroke-width: 0.8; stroke-linejoin: miter; stroke-linecap: square"/>
   </g>
   <g id="patch_6">
    <path d="M 43.78125 22.318125 
L 849.26125 22.318125 
" style="fill: none; stroke: #000000; stroke-width: 0.8; stroke-linejoin: miter; stroke-linecap: square"/>
   </g>
   <g id="text_15">
    <!-- train/success — 3 series -->
    <g transform="translate(373.759063 16.318125) scale(0.12 -0.12)">
     <defs>
      <path id="DejaVuSans-20" transform="scale(0.015625)"/>
      <path id="DejaVuSans-2014" d="M 313 1978 
L 6088 1978 
L 6088 1528 
L 313 1528 
L 313 1978 
z
" transform="scale(0.015625)"/>
      <path id="DejaVuSans-33" d="M 2597 2516 
Q 3050 2419 3304 2112 
Q 3559 1806 3559 1356 
Q 3559 666 3084 287 
Q 2609 -91 1734 -91 
Q 1441 -91 1130 -33 
Q 819 25 488 141 
L 488 750 
Q 750 597 1062 519 
Q 1375 441 1716 441 
Q 2309 441 2620 675 
Q 2931 909 2931 1356 
Q 2931 1769 2642 2001 
Q 2353 2234 1838 2234 
L 1294 2234 
L 1294 2753 
L 1863 2753 
Q 2328 2753 2575 2939 
Q 2822 3125 2822 3475 
Q 2822 3834 2567 4026 
Q 2313 4219 1838 4219 
Q 1578 4219 1281 4162 
Q 984 4106 628 3988 
L 628 4550 
Q 988 4650 1302 4700 
Q 1616 4750 1894 4750 
Q 2613 4750 3031 4423 
Q 3450 4097 3450 3541 
Q 3450 3153 3228 2886 
Q 3006 2619 2597 2516 
z
" transform="scale(0.015625)"/>
     </defs>
     <use xlink:href="#DejaVuSans-74"/>
     <use xlink:href="#DejaVuSans-72" transform="translate(39.208984 0)"/>
     <use xlink:href="#DejaVuSans-61" transform="translate(80.322266 0)"/>
     <use xlink:href="#DejaVuSans-69" transform="translate(141.601562 0)"/>
     <use xlink:href="#DejaVuSans-6e" transform="translate(169.384766 0)"/>
     <use xlink:href="#DejaVuSans-2f" transform="translate(232.763672 0)"/>
     <use xlink:href="#DejaVuSans-73" transform="translate(266.455078 0)"/>
     <use xlink:href="#DejaVuSans-75" transform="translate(318.554688 0)"/>
     <use xlink:href="#DejaVuSans-63" transform="translate(381.933594 0)"/>
     <use xlink:href="#DejaVuSans-63" transform="translate(436.914062 0)"/>
     <use xlink:href="#DejaVuSans-65" transform="translate(491.894531 0)"/>
     <use xlink:href="#DejaVuSans-73" transform="translate(553.417969 0)"/>
     <use xlink:href="#DejaVuSans-73" transform="translate(605.517578 0)"/>
     <use xlink:href="#DejaVuSans-20" transform="translate(657.617188 0)"/>
     <use xlink:href="#DejaVuSans-2014" transform="translate(689.404297 0)"/>
     <use xlink:href="#DejaVuSans-20" transform="translate(789.404297 0)"/>
     <use xlink:href="#DejaVuSans-33" transform="translate(821.191406 0)"/>
     <use xlink:href="#DejaVuSans-20" transform="translate(884.814453 0)"/>
     <use xlink:href="#DejaVuSans-73" transform="translate(916.601562 0)"/>
     <use xlink:href="#DejaVuSans-65" transform="translate(968.701172 0)"/>
     <use xlink:href="#DejaVuSans-72" transform="translate(1030.224609 0)"/>
     <use xlink:href="#DejaVuSans-69" transform="translate(1071.337891 0)"/>
     <use xlink:href="#DejaVuSans-65" transform="translate(1099.121094 0)"/>
     <use xlink:href="#DejaVuSans-73" transform="translate(1160.644531 0)"/>
    </g>
   </g>
   <g id="legend_1">
    <g id="patch_7">
     <path d="M 683.465156 256.652188 
L 844.36125 256.652188 
Q 845.76125 256.652188 845.76125 255.252188 
L 845.76125 224.544062 
Q 845.76125 223.144063 844.36125 223.144063 
L 683.465156 223.144063 
Q 682.065156 223.144063 682.065156 224.544062 
L 682.065156 255.252188 
Q 682.065156 256.652188 683.465156 256.652188 
z
" style="fill: #ffffff; opacity: 0.8; stroke: #cccccc; stroke-linejoin: miter"/>
    </g>
    <g id="line2d_28">
     <path d="M 684.865156 228.812969 
L 691.865156 228.812969 
L 698.865156 228.812969 
" style="fill: none; stroke: #1f77b4; stroke-opacity: 0.8; stroke-width: 1.2; stroke-linecap: square"/>
    </g>
    <g id="text_16">
     <!-- rb100_bs128/tensorboard/rb100_bs128 -->
     <g transform="translate(704.465156 231.262969) scale(0.07 -0.07)">
      <defs>
       <path id="DejaVuSans-62" d="M 3116 1747 
Q 3116 2381 2855 2742 
Q 2594 3103 2138 3103 
Q 1681 3103 1420 2742 
Q 1159 2381 1159 1747 
Q 1159 1113 1420 752 
Q 1681 391 2138 391 
Q 2594 391 2855 752 
Q 3116 1113 3116 1747 
z
M 1159 2969 
Q 1341 3281 1617 3432 
Q 1894 3584 2278 3584 
Q 2916 3584 3314 3078 
Q 3713 2572 3713 1747 
Q 3713 922 3314 415 
Q 2916 -91 2278 -91 
Q 1894 -91 1617 61 
Q 1341 213 1159 525 
L 1159 0 
L 581 0 
L 581 4863 
L 1159 4863 
L 1159 2969 
z
" transform="scale(0.015625)"/>
       <path id="DejaVuSans-5f" d="M 3263 -1063 
L 3263 -1509 
L -63 -1509 
L -63 -1063 
L 3263 -1063 
z
" transform="scale(0.015625)"/>
       <path id="DejaVuSans-6f" d="M 1959 3097 
Q 1497 3097 1228 2736 
Q 959 2375 959 1747 
Q 959 1119 1226 758 
Q 1494 397 1959 397 
Q 2419 397 2687 759 
Q 2956 1122 2956 1747 
Q 2956 2369 2687 2733 
Q 2419 3097 1959 3097 
z
M 1959 3584 
Q 2709 3584 3137 3096 
Q 3566 2609 3566 1747 
Q 3566 888 3137 398 
Q 2709 -91 1959 -91 
Q 1206 -91 779 398 
Q 353 888 353 1747 
Q 353 2609 779 3096 
Q 1206 3584 1959 3584 
z
" transform="scale(0.015625)"/>
       <path id="DejaVuSans-64" d="M 2906 2969 
L 2906 4863 
L 3481 4863 
L 3481 0 
L 2906 0 
L 2906 525 
Q 2725 213 2448 61 
Q 2172 -91 1784 -91 
Q 1150 -91 751 415 
Q 353 922 353 1747 
Q 353 2572 751 3078 
Q 1150 3584 1784 3584 
Q 2172 3584 2448 3432 
Q 2725 3281 2906 2969 
z
M 947 1747 
Q 947 1113 1208 752 
Q 1469 391 1925 391 
Q 2381 391 2643 752 
Q 2906 1113 2906 1747 
Q 2906 2381 2643 2742 
Q 2381 3103 1925 3103 
Q 1469 3103 1208 2742 
Q 947 2381 947 1747 
z
" transform="scale(0.015625)"/>
      </defs>
      <use xlink:href="#DejaVuSans-72"/>
      <use xlink:href="#DejaVuSans-62" transform="translate(41.113281 0)"/>
      <use xlink:href="#DejaVuSans-31" transform="translate(104.589844 0)"/>
      <use xlink:href="#DejaVuSans-30" transform="translate(168.212891 0)"/>
      <use xlink:href="#DejaVuSans-30" transform="translate(231.835938 0)"/>
      <use xlink:href="#DejaVuSans-5f" transform="translate(295.458984 0)"/>
      <use xlink:href="#DejaVuSans-62" transform="translate(345.458984 0)"/>
      <use xlink:href="#DejaVuSans-73" transform="translate(408.935547 0)"/>
      <use xlink:href="#DejaVuSans-31" transform="translate(461.035156 0)"/>
      <use xlink:href="#DejaVuSans-32" transform="translate(524.658203 0)"/>
      <use xlink:href="#DejaVuSans-38" transform="translate(588.28125 0)"/>
      <use xlink:href="#DejaVuSans-2f" transform="translate(651.904297 0)"/>
      <use xlink:href="#DejaVuSans-74" transform="translate(685.595703 0)"/>
      <use xlink:href="#DejaVuSans-65" transform="translate(724.804688 0)"/>
      <use xlink:href="#DejaVuSans-6e" transform="translate(786.328125 0)"/>
      <use xlink:href="#DejaVuSans-73" transform="translate(849.707031 0)"/>
      <use xlink:href="#DejaVuSans-6f" transform="translate(901.806641 0)"/>
      <use xlink:href="#DejaVuSans-72" transform="translate(962.988281 0)"/>
      <use xlink:href="#DejaVuSans-62" transform="translate(1004.101562 0)"/>
      <use xlink:href="#DejaVuSans-6f" transform="translate(1067.578125 0)"/>
      <use xlink:href="#DejaVuSans-61" transform="translate(1128.759766 0)"/>
      <use xlink:href="#DejaVuSans-72" transform="translate(1190.039062 0)"/>
      <use xlink:href="#DejaVuSans-64" transform="translate(1229.402344 0)"/>
      <use xlink:href="#DejaVuSans-2f" transform="translate(1292.878906 0)"/>
      <use xlink:href="#DejaVuSans-72" transform="translate(1326.570312 0)"/>
      <use xlink:href="#DejaVuSans-62" transform="translate(1367.683594 0)"/>
      <use xlink:href="#DejaVuSans-31" transform="translate(1431.160156 0)"/>
      <use xlink:href="#DejaVuSans-30" transform="translate(1494.783203 0)"/>
      <use xlink:href="#DejaVuSans-30" transform="translate(1558.40625 0)"/>
      <use xlink:href="#DejaVuSans-5f" transform="translate(1622.029297 0)"/>
      <use xlink:href="#DejaVuSans-62" transform="translate(1672.029297 0)"/>
      <use xlink:href="#DejaVuSans-73" transform="translate(1735.505859 0)"/>
      <use xlink:href="#DejaVuSans-31" transform="translate(1787.605469 0)"/>
      <use xlink:href="#DejaVuSans-32" transform="translate(1851.228516 0)"/>
      <use xlink:href="#DejaVuSans-38" transform="translate(1914.851562 0)"/>
     </g>
    </g>
    <g id="line2d_29">
     <path d="M 684.865156 239.282344 
L 691.865156 239.282344 
L 698.865156 239.282344 
" style="fill: none; stroke: #ff7f0e; stroke-opacity: 0.8; stroke-width: 1.2; stroke-linecap: square"/>
    </g>
    <g id="text_17">
     <!-- rb25_bs128/tensorboard/rb25_bs128 -->
     <g transform="translate(704.465156 241.732344) scale(0.07 -0.07)">
      <defs>
       <path id="DejaVuSans-35" d="M 691 4666 
L 3169 4666 
L 3169 4134 
L 1269 4134 
L 1269 2991 
Q 1406 3038 1543 3061 
Q 1681 3084 1819 3084 
Q 2600 3084 3056 2656 
Q 3513 2228 3513 1497 
Q 3513 744 3044 326 
Q 2575 -91 1722 -91 
Q 1428 -91 1123 -41 
Q 819 9 494 109 
L 494 744 
Q 775 591 1075 516 
Q 1375 441 1709 441 
Q 2250 441 2565 725 
Q 2881 1009 2881 1497 
Q 2881 1984 2565 2268 
Q 2250 2553 1709 2553 
Q 1456 2553 1204 2497 
Q 953 2441 691 2322 
L 691 4666 
z
" transform="scale(0.015625)"/>
      </defs>
      <use xlink:href="#DejaVuSans-72"/>
      <use xlink:href="#DejaVuSans-62" transform="translate(41.113281 0)"/>
      <use xlink:href="#DejaVuSans-32" transform="translate(104.589844 0)"/>
      <use xlink:href="#DejaVuSans-35" transform="translate(168.212891 0)"/>
      <use xlink:href="#DejaVuSans-5f" transform="translate(231.835938 0)"/>
      <use xlink:href="#DejaVuSans-62" transform="translate(281.835938 0)"/>
      <use xlink:href="#DejaVuSans-73" transform="translate(345.3125 0)"/>
      <use xlink:href="#DejaVuSans-31" transform="translate(397.412109 0)"/>
      <use xlink:href="#DejaVuSans-32" transform="translate(461.035156 0)"/>
      <use xlink:href="#DejaVuSans-38" transform="translate(524.658203 0)"/>
      <use xlink:href="#DejaVuSans-2f" transform="translate(588.28125 0)"/>
      <use xlink:href="#DejaVuSans-74" transform="translate(621.972656 0)"/>
      <use xlink:href="#DejaVuSans-65" transform="translate(661.181641 0)"/>
      <use xlink:href="#DejaVuSans-6e" transform="translate(722.705078 0)"/>
      <use xlink:href="#DejaVuSans-73" transform="translate(786.083984 0)"/>
      <use xlink:href="#DejaVuSans-6f" transform="translate(838.183594 0)"/>
      <use xlink:href="#DejaVuSans-72" transform="translate(899.365234 0)"/>
      <use xlink:href="#DejaVuSans-62" transform="translate(940.478516 0)"/>
      <use xlink:href="#DejaVuSans-6f" transform="translate(1003.955078 0)"/>
      <use xlink:href="#DejaVuSans-61" transform="translate(1065.136719 0)"/>
      <use xlink:href="#DejaVuSans-72" transform="translate(1126.416016 0)"/>
      <use xlink:href="#DejaVuSans-64" transform="translate(1165.779297 0)"/>
      <use xlink:href="#DejaVuSans-2f" transform="translate(1229.255859 0)"/>
      <use xlink:href="#DejaVuSans-72" transform="translate(1262.947266 0)"/>
      <use xlink:href="#DejaVuSans-62" transform="translate(1304.060547 0)"/>
      <use xlink:href="#DejaVuSans-32" transform="translate(1367.537109 0)"/>
      <use xlink:href="#DejaVuSans-35" transform="translate(1431.160156 0)"/>
      <use xlink:href="#DejaVuSans-5f" transform="translate(1494.783203 0)"/>
      <use xlink:href="#DejaVuSans-62" transform="translate(1544.783203 0)"/>
      <use xlink:href="#DejaVuSans-73" transform="translate(1608.259766 0)"/>
      <use xlink:href="#DejaVuSans-31" transform="translate(1660.359375 0)"/>
      <use xlink:href="#DejaVuSans-32" transform="translate(1723.982422 0)"/>
      <use xlink:href="#DejaVuSans-38" transform="translate(1787.605469 0)"/>
     </g>
    </g>
    <g id="line2d_30">
     <path d="M 684.865156 249.751719 
L 691.865156 249.751719 
L 698.865156 249.751719 
" style="fill: none; stroke: #2ca02c; stroke-opacity: 0.8; stroke-width: 1.2; stroke-linecap: square"/>
    </g>
    <g id="text_18">
     <!-- rb50_bs128/tensorboard/rb50_bs128 -->
     <g transform="translate(704.465156 252.201719) scale(0.07 -0.07)">
      <use xlink:href="#DejaVuSans-72"/>
      <use xlink:href="#DejaVuSans-62" transform="translate(41.113281 0)"/>
      <use xlink:href="#DejaVuSans-35" transform="translate(104.589844 0)"/>
      <use xlink:href="#DejaVuSans-30" transform="translate(168.212891 0)"/>
      <use xlink:href="#DejaVuSans-5f" transform="translate(231.835938 0)"/>
      <use xlink:href="#DejaVuSans-62" transform="translate(281.835938 0)"/>
      <use xlink:href="#DejaVuSans-73" transform="translate(345.3125 0)"/>
      <use xlink:href="#DejaVuSans-31" transform="translate(397.412109 0)"/>
      <use xlink:href="#DejaVuSans-32" transform="translate(461.035156 0)"/>
      <use xlink:href="#DejaVuSans-38" transform="translate(524.658203 0)"/>
      <use xlink:href="#DejaVuSans-2f" transform="translate(588.28125 0)"/>
      <use xlink:href="#DejaVuSans-74" transform="translate(621.972656 0)"/>
      <use xlink:href="#DejaVuSans-65" transform="translate(661.181641 0)"/>
      <use xlink:href="#DejaVuSans-6e" transform="translate(722.705078 0)"/>
      <use xlink:href="#DejaVuSans-73" transform="translate(786.083984 0)"/>
      <use xlink:href="#DejaVuSans-6f" transform="translate(838.183594 0)"/>
      <use xlink:href="#DejaVuSans-72" transform="translate(899.365234 0)"/>
      <use xlink:href="#DejaVuSans-62" transform="translate(940.478516 0)"/>
      <use xlink:href="#DejaVuSans-6f" transform="translate(1003.955078 0)"/>
      <use xlink:href="#DejaVuSans-61" transform="translate(1065.136719 0)"/>
      <use xlink:href="#DejaVuSans-72" transform="translate(1126.416016 0)"/>
      <use xlink:href="#DejaVuSans-64" transform="translate(1165.779297 0)"/>
      <use xlink:href="#DejaVuSans-2f" transform="translate(1229.255859 0)"/>
      <use xlink:href="#DejaVuSans-72" transform="translate(1262.947266 0)"/>
      <use xlink:href="#DejaVuSans-62" transform="translate(1304.060547 0)"/>
      <use xlink:href="#DejaVuSans-35" transform="translate(1367.537109 0)"/>
      <use xlink:href="#DejaVuSans-30" transform="translate(1431.160156 0)"/>
      <use xlink:href="#DejaVuSans-5f" transform="translate(1494.783203 0)"/>
      <use xlink:href="#DejaVuSans-62" transform="translate(1544.783203 0)"/>
      <use xlink:href="#DejaVuSans-73" transform="translate(1608.259766 0)"/>
      <use xlink:href="#DejaVuSans-31" transform="translate(1660.359375 0)"/>
      <use xlink:href="#DejaVuSans-32" transform="translate(1723.982422 0)"/>
      <use xlink:href="#DejaVuSans-38" transform="translate(1787.605469 0)"/>
     </g>
    </g>
   </g>
  </g>
 </g>
 <defs>
  <clipPath id="p89dda28c19">
   <rect x="43.78125" y="22.318125" width="805.48" height="435.16"/>
  </clipPath>
 </defs>
</svg>
